<?xml version="1.0" encoding="utf-8"?>
<!-- Generator: Adobe Illustrator 24.0.2, SVG Export Plug-In . SVG Version: 6.00 Build 0)  -->
<svg version="1.1" id="Layer_1" xmlns:xodm="http://www.corel.com/coreldraw/odm/2003"
	 xmlns="http://www.w3.org/2000/svg" xmlns:xlink="http://www.w3.org/1999/xlink" x="0px" y="0px" viewBox="0 0 57.5 49.3"
	 style="enable-background:new 0 0 57.5 49.3;" xml:space="preserve">
<style type="text/css">
	.st0{fill-rule:evenodd;clip-rule:evenodd;fill:#0190D2;}
</style>
<g id="Camada_x0020_1">
	<path class="st0" d="M25.9,20.6c0,2.1,2.1,2.5,3.5,3.2c1.1,0.4,4.6,1.4,5.3,1.8c-1.1,0.4-1.8,0.4-1.8,1.1c0,1.1,0.7,1.1,1.8,1.1
		c0,1.8,1.4,1.4,2.8,1.4c1.8,0,0.4,1.8,1.1,3.2c0.4,1.1,1.8,0.7,2.8,0.7V48c0,0.7,0.4,1.4,1.1,1.4h14.2c0.4,0,0.7-0.7,0.7-1.1V1.4
		c0-0.7-0.4-1.1-0.7-1.1H42.6c-0.7,0-1.1,0.7-1.1,1.4v6.4c-1.1,0-2.5,0-2.8,0.7C38,10.2,39.4,12,37.6,12c-1.4,0-2.5-0.4-2.8,1.4
		c-1.1,0-1.8,0-1.8,1.1s0.7,1.1,1.8,1.1c-0.4,0.4-4.1,1.4-5.3,1.8C27.7,18.1,25.9,18.1,25.9,20.6z M-0.2,1.1C-0.2,0.4,0.2,0,0.5,0
		h14.2c0.7,0,1.1,0.7,1.1,1.4v6.4c0.7,0,1.8,0,2.5,0.4c1.1,0.4,0.7,2.1,0.7,3.5h4.6c2.5,0,1.8,2.8,1.8,4.6c-1.8,0-7.6,1.7-7.5,4.2
		c0.1,3,5.7,4.3,7.5,4.3c0,1.8,0.4,4.6-1.8,4.6H19c0,1.4,0.4,2.8-0.7,3.5c-0.7,0.4-1.8,0.4-2.5,0.4v14.9c0,0.7-0.4,1.4-1.1,1.4H0.5
		c-0.4,0-0.7-0.7-0.7-1.1V1.8C-0.2,1.8-0.2,1.1-0.2,1.1z M13.8,2.1h-12v45h12.1v-45C13.9,2.1,13.8,2.1,13.8,2.1z M17,9.9h-1v8.9
		l0.4-0.7c1.1-1.8,3.2-2.1,5-2.8c2.5-0.7,2.1-0.4,2.1-1.8H17V9.6V9.9z M55.3,47.5h-12v-45h12.1v45H55.3z M41.5,31.2h-1.1V9.9h1.1
		V31.2z M38.3,27h-1.4V14.2h1.4V27z M34.8,23.1c-0.3-0.1-0.6-0.1-0.9-0.2c-0.3-0.1-0.7-0.2-1-0.3c-1.1-0.3-2.1-0.6-3.1-1
		c-0.1,0-0.2-0.1-0.3-0.1c-0.1-0.1-0.3-0.1-0.4-0.2c-0.2-0.1-0.4-0.2-0.6-0.3l-0.1-0.1v-0.4v-0.4c0-0.1,0.1-0.2,0.1-0.2
		c0.1-0.1,0.1-0.1,0.7-0.2c0.2,0,0.2-0.1,0.3-0.1c0.1-0.1,0.3-0.1,0.3-0.1l3.2-1.1c0.4-0.1,1.1-0.4,1.8-0.4v5.3
		C34.8,23.3,34.8,23.1,34.8,23.1z M17,31.2h-1v-8.9l0.4,0.7c1.1,1.8,3.2,2.3,5,2.8c2.5,0.7,2.1,0.4,2.1,1.8H17v3.9V31.2z"/>
</g>
</svg>
