<?xml version="1.0" encoding="utf-8"?>
<!-- Generator: Adobe Illustrator 24.0.2, SVG Export Plug-In . SVG Version: 6.00 Build 0)  -->
<svg version="1.1" id="Layer_1" xmlns:xodm="http://www.corel.com/coreldraw/odm/2003"
	 xmlns="http://www.w3.org/2000/svg" xmlns:xlink="http://www.w3.org/1999/xlink" x="0px" y="0px" viewBox="0 0 68.2 63.9"
	 style="enable-background:new 0 0 68.2 63.9;" xml:space="preserve">
<style type="text/css">
	.st0{fill-rule:evenodd;clip-rule:evenodd;fill:#0190D2;}
</style>
<g id="_2043012868864">
	<path class="st0" d="M37.3,45.4c5.5,0,3.7,0.1,4.6-1.8c0.6-1.5,2.9-1.7,3.6,0c0.9,1.9-1.2,1.8,4.6,1.8V48H37.3V45.4z M16.8,45.4
		c5.3,0,3.7,0.1,4.5-1.8c0.5-1.4,2.8-1.8,3.6-0.1c1,2-1,1.9,4.6,1.9V48H16.8V45.4z M39.5,43.3h-2.2c0-3.3-0.5-5.4,2-6.7
		c2.4-1.3,2.3-2.3,2.3-5.1h4.1c0,3.7-0.4,3.7,2.6,5.4c2.2,1.3,1.8,3.7,1.8,6.5c-4.1,0-1.3,0.3-3.7-2c-1.7-1.5-5-1.7-6.5,1.5
		c-0.1,0.3-0.1,0.5-0.5,0.5L39.5,43.3z M19.2,43.3h-2.4c0-3.2-0.5-5.4,1.9-6.7c2.6-1.4,2.3-1.7,2.3-5.1h4.1c0,2.7-0.3,3.8,2.2,5
		c2.7,1.3,2.2,3.2,2.2,6.8h-2.4c-0.1-1.9-3.3-4.6-6.7-2C19.9,41.7,19.4,42.7,19.2,43.3L19.2,43.3z M17.4,28.2c0-0.8,0.6-1.3,1.3-1.3
		h8.6c2.2,0,1.7,2.6,0.5,2.6h-9.5c-0.4,0-0.9-0.6-0.9-1.2V28.2z M39.2,26.9H48c1.7,0,1.7,2.6,0.1,2.6H39
		C37.6,29.5,37.6,26.9,39.2,26.9z M18.5,31.5H19c0,1.9,0.3,2.6-0.9,3.2c-1.5,0.8-3.3,2.2-3.3,4.2V48H5.3c-2.9,0-5.4,2-5.4,4.6v6.8
		c0,1.9,2.2,4.4,4.6,4.4h27.2c0.8,0,1-0.6,1-1c0-1.3-1.9-1-3.2-1H5.4c-1,0-1.3,0.1-2-0.3c-0.9-0.5-1.5-1.4-1.5-2.8v-5.5
		c0-1.5,1.2-3.1,2.7-3.1h58.8c0.8,0,1.5,0.5,1.9,0.9c0.4,0.5,0.8,1.3,0.8,2.2v5.5c0,1.3-0.6,2.3-1.5,2.8s-2.9,0.3-4.1,0.3h-22
		c-1.3,0-3.3-0.3-3.3,1c0,0.5,0.4,1,1,1h27.2c2.6,0,4.6-2.4,4.6-4.4v-6.8c0-1.4-0.9-2.8-1.7-3.5c-1.3-1-1.9-1-4.1-1
		c-1.8,0-3.5,0-5.3,0s-3.2-0.1-5-0.1v-8.7c0-1.3-0.8-2.7-1.5-3.5c-0.4-0.4-0.9-0.8-1.5-1c-1.5-0.8-1.3-0.5-1.3-3.3
		c3.6,0,4.7-3.8,2.3-6c-0.6-0.6-1.8-0.8-3.1-0.8h-6.7c-5.3,0-5,4.5-3.3,5.9c0.6,0.5,1.3,0.9,2.4,0.9c0,2.8,0.3,2.6-1.2,3.3
		c-1.7,0.8-3.1,2.6-3.1,4.5V48h-3.7v-8.2c0-1.7-0.6-2.7-1.4-3.6c-0.1-0.1-0.1-0.3-0.3-0.3c-1.3-1.3-2.6-1.3-2.6-1.9v-2.4
		c4.5,0,5.4-6.8-0.8-6.8h-6.7c-6.5,0-4.9,6.8-1.3,6.8L18.5,31.5z"/>
	<path class="st0" d="M32.6,14h3.2v2.8h-3.2V14z M0,8.6V4.9c0-0.9,0.9-1.7,1.4-2c0.8-0.3,2.2-0.1,3.1-0.1H24c0.5-1,1.3-2.8,3.3-2.8
		h13.6c2,0,2.8,1.8,3.3,2.8c2,0,4.1,0,6.1,0c0.9,0,2.3-0.3,2.7,0.4c0.5,0.6,0.3,1.7-0.8,1.7h-7.9v4.2h21.4c0.3,0,0.4-0.1,0.4-0.4
		c0-4.6,0.5-3.8-2.6-3.8h-6c-1,0-1.9,0-1.9-1c0-0.5,0.5-0.9,1-0.9H66c0.9,0,2,1.2,2,2v4.1c0,1-0.6,1.7-1.3,2
		c-0.8,0.4-1.9,0.3-3.1,0.3H44.1c-1.4,3.1-2.6,2.8-6.4,2.8c0,2,0.4,4.9-2.7,4.9c0,0.6,0.1,2.4-0.8,2.4c-1.5,0-1.3-0.6-1.3-2.4
		c-0.9,0-1.5-0.3-2-0.8c-0.9-1-0.6-2.6-0.6-4.1c-1.9,0-3.6,0.3-5-0.8c-0.1-0.1-0.3-0.1-0.3-0.3c-0.3-0.1-0.1,0-0.3-0.3
		c-0.6-0.6-0.6-1-0.9-1.5c-2,0-4.2,0-6.3,0c-1.2,0-2.2,0.1-2.7-0.5c-0.5-0.8,0.1-1.7,1-1.7h7.8V5H2.5C2.2,5,1.9,5.3,1.9,5.5
		c0,4.2-0.3,3.7,1.2,3.7h4.4c2.4,0,4.7-0.4,4.7,1c0,0.6-0.6,1-1.2,1c-9.5,0-11,0.6-11.1-2.6H0z M26,10.1V3.6c0-0.6,0.6-1.4,1.3-1.4
		h13.6c0.8,0,1.3,0.8,1.3,1.4v6.5c0,1-0.6,1.8-1.8,1.8H27.6c-1,0-1.8-0.6-1.8-1.8H26z"/>
	<path class="st0" d="M60.6,57.7H48.3c0-1.9-0.3-3.3,0.4-3.3h11.8c0.6,0,0.4,1.2,0.4,2.9C60.9,57.6,60.8,57.7,60.6,57.7
		C60.5,57.7,60.6,57.7,60.6,57.7z M46.3,54.7c0,2.2-0.5,5,2.8,5h11.3c1.3,0,2.7-0.8,2.7-2c0-2.2,0.5-5.5-2.2-5.5H48.4
		c-1.3,0-2.3,1.2-2.3,2.4L46.3,54.7z"/>
	<path class="st0" d="M7.2,57.3c0-1.8-0.3-2.9,0.4-2.9h11.8c0.6,0,0.4,1.4,0.4,3.3H7.4c-0.3,0-0.4-0.1-0.4-0.4
		C7,57.3,7.2,57.3,7.2,57.3z M5.1,54.5v3.3c0,1.2,1.4,2,2.7,2h11.3c3.3,0,2.8-2.8,2.8-5c0-1.3-1-2.4-2.3-2.4H7.2
		C6,52.4,5,53.4,5.1,54.5L5.1,54.5z"/>
	<path class="st0" d="M27.7,57c0-1.4-0.3-2.7,0.5-2.7h11.7c0.9,0,0.5,2.8,0.4,3.3H27.7c-0.1-0.3-0.1-0.3-0.1-0.6H27.7z M25.6,54.6
		c0,2-0.6,5.3,2.7,5.3h11.4c3.2,0,2.7-3.1,2.7-5.3c0-1.2-1-2.3-2-2.3H27.6C26.6,52.3,25.6,53.5,25.6,54.6L25.6,54.6z"/>
	<path class="st0" d="M33.8,5.9c0.8,0,1.4,0.1,1.4,1.2c-0.1,1.4-2,1.5-2.2,0.1c-0.1-0.5,0.3-1.3,0.9-1.3C33.9,5.9,33.8,5.9,33.8,5.9
		z M30.9,6.8c0,1.9,1.5,3.3,2.7,3.3s2,0,2.9-1c1.9-2.3,0.3-5.4-2.3-5.4c-1.7,0-3.2,1.4-3.2,3.1H30.9z"/>
</g>
</svg>
