<?xml version="1.0" encoding="utf-8"?>
<!-- Generator: Adobe Illustrator 24.0.2, SVG Export Plug-In . SVG Version: 6.00 Build 0)  -->
<svg version="1.1" id="Layer_1" xmlns:xodm="http://www.corel.com/coreldraw/odm/2003"
	 xmlns="http://www.w3.org/2000/svg" xmlns:xlink="http://www.w3.org/1999/xlink" x="0px" y="0px" viewBox="0 0 68.2 63.9"
	 style="enable-background:new 0 0 68.2 63.9;" xml:space="preserve">
<style type="text/css">
	.st0{fill-rule:evenodd;clip-rule:evenodd;fill:#0190D2;}
</style>
<g id="_2043016534064">
	<path class="st0" d="M48.4,45.4c5.5,0,3.6,0.1,4.5-1.9c0.8-1.7,3-1.4,3.6,0c0.9,2-1.1,1.9,4.5,1.9v2.7H48.4V45.4L48.4,45.4z
		 M27.7,45.4c5.5,0,3.8,0.1,4.6-1.8c0.7-1.5,2.9-1.6,3.6,0c0.9,1.9-1.2,1.8,4.6,1.8v2.7H27.7V45.4L27.7,45.4z M7.2,45.4
		c5.3,0,3.8,0.2,4.5-1.8c0.3-0.7,1-1.2,1.8-1.3c2.5-0.1,1.7,3,2.9,3h3.5V48H7.2V45.4z M50.8,43.4h-2.4c0-3.6-0.6-5.5,2.1-6.8
		c2.4-1.2,2.1-2.4,2.1-5h4.1c0,1.8-0.3,3.1,0.8,4.2c1.1,1.1,3.5,1.3,3.5,4.1v3.6h-2.4c-0.7-2.9-4.2-4.1-6.6-2.1
		C51.6,41.7,50.8,42.7,50.8,43.4L50.8,43.4z M29.8,43.4h-2.1c0-3.3-0.4-5.4,2.1-6.7s2.3-2.3,2.3-5.2h4.1c0,3.7-0.4,3.7,2.5,5.3
		c2.2,1.2,1.7,3.6,1.7,6.5c-4.1,0-1.3,0.3-3.7-2c-1.7-1.6-4.8-1.4-6.2,1c-0.2,0.3-0.1,0.3-0.3,0.6C30.2,43.3,30.3,43.5,29.8,43.4
		L29.8,43.4z M9.6,43.4H7.2c0-3.2-0.5-5.3,2-6.7c2.6-1.4,2.3-1.7,2.3-5.2h4.1c0,2.7-0.3,3.9,2.1,5c2.7,1.3,2.1,3.2,2.1,6.8h-2.4
		c-0.1-1.9-3.4-4.6-6.6-2.1C10.4,41.7,9.8,42.7,9.6,43.4L9.6,43.4z M59.4,29.4h-9.5c-1.1,0-1.6-2.5,0.5-2.5h8.5
		C60.8,26.9,60.4,29.4,59.4,29.4L59.4,29.4z M7.9,28.2c0-0.7,0.6-1.3,1.3-1.3h8.5c2.1,0,1.7,2.5,0.5,2.5H8.7
		C8.3,29.4,7.8,28.8,7.9,28.2L7.9,28.2z M29.7,26.9h8.8c1.6,0,1.7,2.5,0.1,2.5h-9.1C28,29.4,28.1,26.9,29.7,26.9L29.7,26.9z
		 M8.9,31.6h0.5c0,4.3-0.4,2.2-2.5,4.2c-0.7,0.7-1.8,2-1.8,3.3v9.1c-2.9,0-5.2,2.1-5.2,4.7v6.8c0,1.9,2.2,4.4,4.7,4.4h27.2
		c0.7,0,1.1-0.6,1.1-1.1c0-1.3-1.9-1.1-3.2-1.1H5.6c-1,0-1.3,0.1-2-0.3C2.7,61.1,2,60.1,2,58.7v-5.5c0-1.6,1.1-3.1,2.7-3.1h58.9
		c0.8,0,1.5,0.5,1.9,0.9c0.4,0.5,0.8,1.3,0.8,2.2v5.5c0,1.3-0.6,2.2-1.5,2.8c-0.9,0.5-2.9,0.3-4.1,0.3h-22c-1.3,0-3.3-0.2-3.3,1.1
		c0,0.5,0.4,1.1,1.1,1.1h27.2c2.5,0,4.7-2.5,4.7-4.4v-6.8c0-2.5-2.3-4.7-5-4.7V41c0-7-4.4-5.1-4.4-7.7v-1.7c2.7,0,4-2.1,3.6-3.9
		c-0.4-2.3-2.2-2.9-4.5-2.9c-2.2,0-6.2-0.1-8.2,0.1c-1.5,0.2-2.8,1.7-2.8,3.2c0,1.9,1.4,3.5,3.6,3.5c0,4.3,0.1,2-2.2,4
		c-1.3,1.1-2,2.4-2,4.5v8h-3.7v-8.7c0-1.8-1.3-3.7-3-4.5c-1.5-0.8-1.3-0.5-1.3-3.4c1.2,0,1.8-0.3,2.5-0.8c1.7-1.4,2-6-3.3-6H31
		c-5.3,0-5,4.5-3.3,6c0.7,0.6,1.3,0.8,2.5,0.8c0,2.8,0.3,2.6-1.2,3.3c-1.7,0.8-3.1,2.6-3.1,4.5V48h-3.7v-8.2c0-1.8-0.7-2.9-1.7-3.9
		c-0.1-0.1-0.3-0.3-0.3-0.3c-0.3-0.2-0.5-0.4-0.8-0.6c-1.7-1-1.5,0-1.5-3.5c1,0,2-0.3,2.6-1c1.3-1.3,1.3-3.7-0.3-5
		c-0.8-0.6-1.8-0.8-3.2-0.8h-6.7c-6.6,0-4.9,6.8-1.3,6.8L8.9,31.6z"/>
	<path class="st0" d="M32.5,14h3.2v2.8h-3.2V14z M0,8.6V4.8C0,4,0.9,3.2,1.5,2.9c0.7-0.3,2.1-0.1,3.1-0.1H24c0.5-1,1.2-2.8,3.3-2.8
		h13.6c2.1,0,2.8,1.7,3.3,2.8c2,0,4.1,0,6.1,0c0.9,0,2.3-0.2,2.7,0.3c0.6,0.7,0.2,1.7-0.7,1.7h-8v4.3h21.4c0.3,0,0.4-0.1,0.4-0.4
		c0-4.6,0.5-3.9-2.5-3.9h-6c-1.1,0-1.9,0.1-1.9-1.1c0-0.5,0.5-0.9,1.1-0.9h9.3c0.9,0,2,1.1,2,2v4.1c0,1-0.6,1.7-1.3,2
		c-0.8,0.4-1.9,0.3-3.1,0.3H44.1c-1.5,3.1-2.5,2.8-6.4,2.8c0,2,0.4,4.9-2.7,4.9c0,0.6,0.2,2.4-0.8,2.4c-1.5,0-1.3-0.7-1.3-2.4
		c-1,0-1.5-0.3-2-0.8c-0.9-1-0.7-2.6-0.7-4.1c-1.9,0-3.6,0.2-4.9-0.8c-0.1-0.1-0.2-0.1-0.3-0.2c-0.2-0.2-0.1-0.1-0.2-0.2
		c-0.6-0.6-0.7-1-1-1.6c-2.1,0-4.2,0-6.3,0c-1.1,0-2.2,0.2-2.7-0.5s0.1-1.6,1-1.6h7.8V4.8H2.4C2.1,4.8,1.9,5,1.9,5.3
		c0,4.2-0.3,3.8,1.2,3.7h4.4c2.4,0,4.8-0.4,4.8,1.1c0,0.7-0.7,1.1-1.2,1.1C1.6,11.2,0.1,11.8,0,8.6L0,8.6z M26,10.1V3.6
		c0-0.7,0.6-1.5,1.3-1.5h13.6c0.7,0,1.3,0.8,1.3,1.5v6.5c0,1.1-0.7,1.7-1.7,1.7H27.7C26.6,11.9,26,11.2,26,10.1z"/>
	<path class="st0" d="M60.6,57.7H48.3c0-1.9-0.3-3.3,0.4-3.3h11.9c0.7,0,0.4,1.1,0.4,2.9C61,57.6,60.9,57.7,60.6,57.7L60.6,57.7z
		 M46.2,54.7c0,2.2-0.4,5,2.8,5h11.3c1.3,0,2.7-0.8,2.7-2c0-2.2,0.6-5.5-2.1-5.5H48.5C47.2,52.3,46.2,53.5,46.2,54.7z"/>
	<path class="st0" d="M7.2,57.3c0-1.8-0.3-2.9,0.4-2.9h11.9c0.7,0,0.4,1.4,0.4,3.3H7.6C7.3,57.6,7.2,57.5,7.2,57.3L7.2,57.3z
		 M5.2,54.5v3.3c0,1.2,1.4,2,2.7,2h11.3c3.3,0,2.8-2.9,2.8-5c0-1.3-1-2.4-2.2-2.4H7.3C6.2,52.3,5.2,53.3,5.2,54.5z"/>
	<path class="st0" d="M27.7,57c0-1.4-0.3-2.7,0.5-2.7h11.7c1,0,0.5,2.8,0.4,3.3H27.8C27.7,57.4,27.7,57.4,27.7,57L27.7,57z
		 M25.7,54.6c0,2.1-0.6,5.2,2.7,5.2h11.5c3.3,0,2.7-3.1,2.7-5.2c0-1.1-1-2.2-2-2.2H27.7C26.7,52.4,25.7,53.5,25.7,54.6z"/>
	<path class="st0" d="M33.8,5.9c0.7,0,1.5,0.2,1.4,1.2c-0.1,1.4-2,1.5-2.2,0.1C32.9,6.7,33.3,5.9,33.8,5.9L33.8,5.9z M30.9,6.8
		c0,2,1.5,3.3,2.7,3.3c1.1,0,2.1,0,2.9-1c2-2.3,0.2-5.4-2.4-5.4C32.5,3.7,30.9,5.2,30.9,6.8z"/>
</g>
</svg>
