<?xml version="1.0" encoding="utf-8"?>
<!-- Generator: Adobe Illustrator 24.0.2, SVG Export Plug-In . SVG Version: 6.00 Build 0)  -->
<svg version="1.1" id="Layer_1" xmlns:xodm="http://www.corel.com/coreldraw/odm/2003"
	 xmlns="http://www.w3.org/2000/svg" xmlns:xlink="http://www.w3.org/1999/xlink" x="0px" y="0px" viewBox="0 0 57.9 58"
	 style="enable-background:new 0 0 57.9 58;" xml:space="preserve">
<style type="text/css">
	.st0{fill:none;stroke:#0190D2;stroke-width:2.1086;stroke-linecap:round;stroke-linejoin:round;stroke-miterlimit:8.0568;}
	.st1{fill:none;stroke:#0190D2;stroke-width:2.1086;stroke-linecap:round;stroke-miterlimit:8.0568;}
	.st2{fill:none;stroke:#0190D2;stroke-width:2.1086;stroke-linejoin:round;stroke-miterlimit:8.0568;}
</style>
<g id="Camada_x0020_1">
	<polygon class="st0" points="27.2,1.4 56.7,1.4 56.7,4.2 50.7,7.4 32.5,7.4 32.5,13 27.2,13 	"/>
	<polygon class="st0" points="27.2,28.5 56.7,28.5 56.7,25.7 50.7,22.1 32.5,22.1 32.5,16.9 27.2,16.9 	"/>
	<polygon class="st0" points="56.7,20.7 51.4,17.9 36.7,17.9 36.7,11.9 51.4,11.9 56.7,9.5 	"/>
	<polygon class="st0" points="1.2,56.9 56.7,56.9 56.7,34.8 49,34.8 49,42.5 37.4,42.2 35.3,34.8 23,34.8 20.5,42.2 8.9,42.5 
		8.9,34.8 1.2,34.8 	"/>
	<line class="st1" x1="1.2" y1="1.1" x2="1.2" y2="28.5"/>
	<polygon class="st2" points="1.2,8.1 8.6,8.1 8.6,21.8 1.2,21.8 	"/>
	<polygon class="st2" points="8.6,10.5 14.5,10.5 14.5,19.7 8.6,19.7 	"/>
	<polygon class="st2" points="14.5,12.7 20.5,12.7 23.7,15.1 20.5,17.2 14.5,17.2 	"/>
</g>
</svg>
