<?xml version="1.0" encoding="utf-8"?>
<!-- Generator: Adobe Illustrator 24.0.2, SVG Export Plug-In . SVG Version: 6.00 Build 0)  -->
<svg version="1.1" id="Layer_1" xmlns:xodm="http://www.corel.com/coreldraw/odm/2003"
	 xmlns="http://www.w3.org/2000/svg" xmlns:xlink="http://www.w3.org/1999/xlink" x="0px" y="0px" viewBox="0 0 58.9 58.9"
	 style="enable-background:new 0 0 58.9 58.9;" xml:space="preserve">
<style type="text/css">
	.st0{fill-rule:evenodd;clip-rule:evenodd;fill:#0190D2;}
</style>
<g id="_2043016513760">
	<path class="st0" d="M18.6,44.5c0-0.6,0.3-1.3,0.9-1.3h20c1,0,0.9,2.2,0.9,2.9H18.7l-0.1-1.4C18.6,44.7,18.6,44.5,18.6,44.5z
		 M25.5,35.7c0.6-0.1,3.5-2.2,3.9-2.2c0.3,0,1.6,0.9,1.9,1c0.4,0.3,1.6,1,2,1.2v5.5h-7.8V35.7z M23.5,36.9v4.3h-3.7
		c-1.6,0-3,1.3-3,2.7v2.2H8.9V18.6h13.7c0,1.9-0.3,2.9,1,4.2c0.6,0.6,1.2,0.9,2.4,0.9c0.4,1,1,1.9,1.4,2.9c0.4,0.9,0.9,2,2.2,2
		c1.7,0,2.4-2.7,3.6-4.9c1.9,0,3.3-1,3.3-3v-2h13.7v27.5h-7.8V44c0-1.4-1.4-2.7-3-2.7h-3.7c0-1.7,0.4-5.4-0.5-6.6
		c-0.6-0.7-2.5-1.9-3.4-2.4c-2.6-1.6-2.6-1-5.9,1c-1.6,0.9-2.4,1.1-2.4,3.4L23.5,36.9z M28.2,23.6h2.6c-0.1,0.9-1,1.7-1.2,2.6
		L28.2,23.6z M24.6,20.9v-7.1h9.6v7.1c0,0.3-0.4,0.7-0.7,0.7h-8.3c-0.3,0-0.7-0.4-0.7-0.7H24.6z M36.3,14.8H50v2H36.3V14.8z
		 M8.8,14.8h13.7v2H8.8V14.8z M22.7,12.8h-14c0-1.9-0.4-3.9,1-3.9h39.2c1.4,0,1,2,1,3.9H36c-0.1-0.6-1-1-1.7-1h-9.6
		c-0.7,0-1.6,0.4-1.7,1C23,12.8,22.7,12.8,22.7,12.8z M6.6,10.5v35.1c0,1.3,0.6,2.6,1.7,2.6h41.9c1.2,0,1.7-1.3,1.7-2.6V10.5
		c0-2.4-1.3-3.7-3.7-3.7h-38C7.8,6.8,6.5,8.1,6.6,10.5L6.6,10.5z"/>
	<path class="st0" d="M45.2,56.1V55H53c0,2.4,0.1,2-6.5,2C45.9,57,45.2,56.7,45.2,56.1z M6,56v-1h7.8c0,2.4,0,2-6.6,2
		c-0.6,0-1-0.3-1-0.9L6,56z M2,49.7V5.3C2,3.2,3.3,2,5.3,2h48.2c2.2,0,3.3,1.3,3.3,3.3v44.3c0,1.7-1.2,3.2-2.6,3.2H4.6
		C3,52.8,2,51.4,2,49.7z M0,4.5v45.9c0,2.2,2,4.3,3.9,4.5c0,1.3,0,2,0.6,2.7c0.4,0.6,1.2,1.3,2.2,1.3h6.5c1.6,0,2.7-1.4,2.7-3.2
		v-0.9h27.4c0,1.2,0,2,0.7,2.9c0.4,0.4,1.2,1,2,1h6.5c0.9,0,1.7-0.7,2.2-1.3c0.6-0.9,0.6-1.4,0.6-2.7c1.9-0.1,3.9-2.4,3.9-4.5V4.6
		c0-2.6-2.3-4.8-4.5-4.8h-50c-1.2,0-2.4,0.9-3,1.4s-1.4,1.9-1.4,3L0,4.5z"/>
</g>
</svg>
