<?xml version="1.0" encoding="utf-8"?>
<!-- Generator: Adobe Illustrator 24.0.2, SVG Export Plug-In . SVG Version: 6.00 Build 0)  -->
<svg version="1.1" id="Layer_1" xmlns:xodm="http://www.corel.com/coreldraw/odm/2003"
	 xmlns="http://www.w3.org/2000/svg" xmlns:xlink="http://www.w3.org/1999/xlink" x="0px" y="0px" viewBox="0 0 70.8 46.3"
	 style="enable-background:new 0 0 70.8 46.3;" xml:space="preserve">
<style type="text/css">
	.st0{fill-rule:evenodd;clip-rule:evenodd;fill:#0190D2;}
</style>
<g id="_2043016558496">
	<path class="st0" d="M2.1,42.1h61.7v2.1H2.1V42.1z M63.8,39.9H4.5c1.2-5.2,4.4-10.6,7.5-14.8c2-2.7,4.9-5.4,7.6-7.4
		c4.3-3.2,10.9-6,16.5-6h23.2c2.1,0,3.9,1.5,4.8,2.7c1.4,1.7,1.4,3.3,1.9,5.7L68.4,33C65.9,33.5,64,36.9,63.8,39.9L63.8,39.9z
		 M64.1,11.3c-0.5-0.3-0.8-0.5-1.2-0.8l1.2-1.3l1,1L64.1,11.3L64.1,11.3z M66.3,1.1c0,1.9,2.1,4.9-0.8,6.4c-1.6-1.1-1-1.8-3.9,1.1
		c-1.6,1.6-0.7,0.9-3.2,0.9H37.3c-5.1,0-9.7,1.4-13.3,3c-1.3,0.6-3.9,2.1-5.1,3c-0.8,0.6-1.6,1.1-2.3,1.7c-0.8,0.7-1.4,1.3-2.2,2
		c-4.3,4.3-7.6,8.6-10.1,14.5c-0.8,2-1.6,3.9-2.1,6.1c-2.8,0-2.2,0-2.2,5.4c0,0.7,0.3,1,1,1h63.8c1,0,1.1-0.6,1.1-1.7
		c0-2.2-0.1-5.5,0.9-7.5c1.6-3,4.4-1.7,3.9-4.2c-0.2-0.8-0.3-1.6-0.5-2.4l-1.8-9.3c-0.3-1.6-0.6-3.2-0.9-4.7
		c-0.6-2.3-1.7-3.2-1.8-3.9c0.4-0.6,2.1-1.8,2.1-2.5c0-0.4-0.4-0.8-0.6-1c1-1.5,2.9-2.4,1.7-6.2c-0.5-1.6-0.2-2.9-1.4-3
		c-0.7-0.1-1.2,0.3-1.2,1.1L66.3,1.1z"/>
	<path class="st0" d="M44.2,25.1h5.2V28h-5.2V25.1z M42,24v3.9H28.5c1.1-2.3,1.9-4,4.2-5.9c5.3-4.3,9.8-3.3,16.8-3.3
		c3.4,0,6.8,0,10.2,0c0.3,1.5,0.7,3,1,4.5c0.2,0.8,0.3,1.4,0.6,2.3c0.2,0.8,0.4,1.6,0.5,2.3h-10c0-2.7,0.5-5.1-1.3-5.1h-7
		C42.6,22.8,42,23.3,42,24z M27.7,30.2h33.7c3.8,0,2.2-3.7,1.9-5.2l-1.5-6.5c-0.3-1.2-0.8-1.9-2.2-1.9H42c-7.4,0-13.8,4.7-15.9,11.7
		C25.6,29.7,26.2,30.2,27.7,30.2L27.7,30.2z"/>
	<path class="st0" d="M27,36.8h17.7c1.7,0,1.7-2.2,0-2.2H27.1C25.4,34.5,25.5,36.8,27,36.8L27,36.8z"/>
</g>
</svg>
