<?xml version="1.0" encoding="utf-8"?>
<!-- Generator: Adobe Illustrator 24.0.2, SVG Export Plug-In . SVG Version: 6.00 Build 0)  -->
<svg version="1.1" id="Layer_1" xmlns:xodm="http://www.corel.com/coreldraw/odm/2003"
	 xmlns="http://www.w3.org/2000/svg" xmlns:xlink="http://www.w3.org/1999/xlink" x="0px" y="0px" viewBox="0 0 65.9 54.8"
	 style="enable-background:new 0 0 65.9 54.8;" xml:space="preserve">
<style type="text/css">
	.st0{fill-rule:evenodd;clip-rule:evenodd;fill:#0190D2;}
</style>
<g id="Camada_x0020_1">
	<path class="st0" d="M22.5,51.6c0,1.6-0.9,2.5-2.8,2.8c-5.3,0-10.3,0-15.6,0v-5c0-1.9,1.6-2.8,3.1-2.8c0-6.2-0.3-12.2,1.2-18.1
		C9,26,10,24.4,7.5,24.4c-4.7,0-5.3-3.1-5.3-6.9c0-0.9,0-1.2,0-1.6c-3.1-3.7-2.8-9.4,0.6-12.8C4.4,1.5,6.5,0.3,9,0.3h23.1
		c0.3,0,0.6,0,0.9,0.3V19c0,0.3-0.3,0.3-0.6,0.3H18c0.8,0.4,1.2,1.2,1.2,2.2v9.1c0.8,8.2,5.3,4.5,0.3,16.2h2.8
		C22.5,48.5,22.5,50.1,22.5,51.6L22.5,51.6z M5.4,16.7c1.2,0.6,3.3,0.9,4.9,0.9h20.9v-15h-1.9v3.7c0,1.9-1.6,3.4-3.4,3.4h-9.4
		c-1.6,0-3.4-1.6-3.4-3.1V2.9C9.4,2.9,5.9,2.6,3.4,6S1.6,14.2,5.4,16.7L5.4,16.7z M4.4,18.6c0,0.9,0,1.4,0.6,2.4
		c0.9,1.6,3.4,1.2,5,1.6c1.2,0.3,2.2,1.2,1.9,3.1C11.6,27,10,31.6,9.7,39.4v7.2h8.4l0.6-1.9c-2.8,0-4.1,0.6-4.1-1.2
		c0-0.3,0.3-0.6,0.6-0.6s3.4,0,4.1,0L20,41c-1.9,0-4.1,0.3-4.1-0.9c0-0.9,0.6-0.9,1.6-0.9c0.9,0,1.9,0,2.5,0c0-0.6,0-1.2-0.6-1.9
		h-4.1c-0.9-0.3-0.9-1.6-0.3-1.9c0.3-0.3,2.8,0,3.4,0c0-0.3-0.6-1.9-0.6-1.9c-2.5,0-3.1,0.3-3.1-1.2c0-0.9,1.9-0.6,3.1-0.6v-8.4
		c0-1.9-0.9-2.5-2.5-2.8c-1.2,0-3.1,0-4.4,0C8.4,20.4,6.3,19.6,4.4,18.6L4.4,18.6z M27.5,5.4V2.3H15.3c0,2.5-0.6,5,1.9,5h8.4
		C27.2,7.3,27.5,6.7,27.5,5.4z M20.6,51v-2.5H8.1c-0.9,0-1.6,0.6-1.6,1.6v2.5H19C20,52.6,20.6,51.9,20.6,51z"/>
	<path class="st0" d="M23.6,22.9h13c-0.3,1.6-0.6,2.8-0.9,4.4c-0.3,0.9-0.6,1.6-1.6,1.6h-3.7v5.3c0,1.2-0.9,1.6-1.9,1.6h-5.3V22.9
		H23.6z M25.3,33.8h3.1v-6.2c0-0.6,0.3-0.9,0.6-0.9c1.6,0,3.1,0,4.4,0l0.6-1.9h-8.7C25.3,27.9,25.3,30.7,25.3,33.8z"/>
	<path class="st0" d="M43.1,28.5h-1.9v4.1h3.1C43.4,31.3,43.4,30.1,43.1,28.5z M45,27c-0.3,2.8,1.6,4.7,1.6,5.9
		c0,0.9-0.9,1.6-1.9,1.6c-1.6,0-4.1,0-5.3,0V27H45z"/>
	<path class="st0" d="M30,52.9h19.4c1.9,0,1.2-1.9,1.2-4.7c0-0.6-0.3-0.9-0.6-1.2c-0.6-0.6-2.5-2.5-3.1-3.1s-1.2-0.6-2.5-0.6
		c0,2.8,0.3,5.9-3.4,5.9H28.1C27.2,51,27.2,52.9,30,52.9L30,52.9z M42.5,45.1v-4.4c1.2,0,2.2,0,2.8,0c0.9,0,1.6,0.3,2.5,0.9
		c0.6,0.6,1.6,1.6,3.1,3.1c0.6,0.6,1.6,1.6,1.6,2.8v4.4c0,1.2-1.2,2.8-2.8,2.8H29c-1.9,0-3.7-1.9-3.7-4.1c0-1.2,0.6-2.8,1.2-4.1
		h14.1C41.5,46.6,42.5,46,42.5,45.1L42.5,45.1z"/>
	<path class="st0" d="M38.7,2.6h9.4l4.1,1.9c0.3,0,0.6,0.3,0.6,1.2c0,2.5,0,5,0,7.5c0,0.6-0.3,0.9-0.6,1.2s-3.7,1.9-4.1,1.9h-9.4
		v-14C38.7,2.3,38.7,2.6,38.7,2.6z M50.9,6.3L49,5.4v8.4l1.9-0.9V6V6.3z M45,7.6c0,1.6-1.9,0.9-4.1,0.9v1.9c2.2,0,4.1-0.3,4.1,0.9
		c0,1.6-1.9,0.9-4.1,0.9v1.9h5.9v-10h-5.9V6C43.1,6,45,5.7,45,7V7.6z"/>
	<path class="st0" d="M56.2,8.5H65c1.2,0,1.2,1.9,0,1.9h-8.7L56.2,8.5L56.2,8.5z"/>
</g>
</svg>
