<?xml version="1.0" encoding="utf-8"?>
<!-- Generator: Adobe Illustrator 24.0.2, SVG Export Plug-In . SVG Version: 6.00 Build 0)  -->
<svg version="1.1" id="Layer_1" xmlns:xodm="http://www.corel.com/coreldraw/odm/2003"
	 xmlns="http://www.w3.org/2000/svg" xmlns:xlink="http://www.w3.org/1999/xlink" x="0px" y="0px" viewBox="0 0 54.7 56.2"
	 style="enable-background:new 0 0 54.7 56.2;" xml:space="preserve">
<style type="text/css">
	.st0{fill-rule:evenodd;clip-rule:evenodd;fill:#0190D2;}
</style>
<g id="_2043012831520">
	<path class="st0" d="M14.9,12V8h24.8v4c0,1-0.7,1.7-1.7,1.7H16.7C15.7,13.7,15,13,14.9,12L14.9,12z M45.5,6.4H9.2
		c-2,0-3-0.4-4.2-1.2C4,4.5,3,3,3,1.8h48.5c-0.1,1.4-1.1,2.8-2,3.4c-1.1,0.8-2.2,1.2-4.2,1.2C45.3,6.4,45.5,6.4,45.5,6.4z M1.2,0.8
		c0,2.8,1.7,5.2,4,6.4C5.9,7.6,6.9,7.9,8,7.9h5.3v4c0,2,1.6,3.5,3.8,3.5h3.3v19.1c0,0.3,2.3,2.9,3,3.7l3.1,3.5c0.9,1,1,1.3,2.2,0.1
		c0.2-0.2,0.2-0.3,0.4-0.5l4.9-5.7c0.3-0.4,0.7-0.6,0.7-1.2V23.2c0-0.4-0.3-1-0.9-1c-1.1,0-0.9,1.1-0.9,2.1v9.1
		c0,1.1-0.2,0.7-1.4,2.3l-3.2,3.7c-0.3,0.4-0.3,0.5-0.7,0.8c-0.3-0.2-0.4-0.4-0.7-0.7l-2.1-2.3C24.4,36.8,22,34.3,22,34V15.4h10.7
		v4.3c0,1.2,1.7,1.2,1.7,0v-4.3h3.3c2.2,0,3.8-1.5,3.8-3.8V7.9h5.3c2.9,0,5.7-2.5,6.4-5.2c0.2-0.8,0.7-2.8-0.6-2.8H2.1
		C1.6-0.1,1.2,0.3,1.2,0.8L1.2,0.8z"/>
	<path class="st0" d="M15.1,45.7c0.4,0.1,1.8,0.9,2.2,1.2c0.3,0.2,0.4,0.3,0.8,0.4l6,3.4c0.5,0.3,2.7,1.6,3.1,1.6
		c0.5,0,3.5-1.9,4.6-2.4l4.6-2.5c0.3-0.2,0.4-0.3,0.7-0.4c0.5-0.3,2-1.2,2.4-1.3v8.8H15.1V45.7L15.1,45.7z M0,36.6
		c0,0.8,0.9,1.1,2.1,1.7L8,41.6c0.3,0.1,1-0.1,1-0.8c0-0.8-0.8-1-1.4-1.3l-5.5-3.1c0-0.4,1.5-2.9,1.7-3.4l11,6.1
		c2.3,1.3,5.8,3.4,8,4.5l3,1.6c2.2,1.2,1.3,0.9,6-1.6c0.5-0.3,1-0.6,1.5-0.8L50.8,33c0.1,0.4,0.7,1.2,0.9,1.6
		c0.2,0.4,0.8,1.3,0.9,1.7c-4.2,2.2-10,5.5-14.2,7.9c-0.5,0.3-1,0.5-1.5,0.8L29,49.5c-0.3,0.1-1.5,0.9-1.6,0.9L12.3,42
		c-0.6-0.4-0.7-0.5-1.4-0.5c-0.5,0-0.6,0.6-0.6,1c0,0.5,1.1,1,1.5,1.2c0.5,0.2,1.3,0.8,1.7,0.9v9.3c0,1.1-0.3,2.3,0.9,2.3h26.2
		c1.1,0,0.9-1.1,0.9-2.2v-9.4c0.3-0.1,0.6-0.3,0.8-0.4L53.4,38c2.4-1.3,1.5-1.1-0.6-5.1c-0.2-0.3-0.8-1.6-1.1-1.8
		c-0.3-0.3-0.7-0.2-1.1,0l-7.5,4.2c-0.4,0.2-0.6,0.3-1,0.5c-0.6,0.4-1.2,0.6-1.8,1l-3.7,2.1c-0.6,0.4-1.3,0.7-1.9,1.1
		c-0.6,0.4-6.9,4-7.5,4.1L23.7,42c-2.6-1.6-6.5-3.5-9.2-5.2c-0.6-0.4-1.3-0.7-1.9-1.1L8,33.2c-0.3-0.2-0.6-0.3-0.9-0.5
		c-4.2-2.5-3.7-2.2-5,0.1C1.8,33.4,0.1,36.2,0,36.6L0,36.6z"/>
	<path class="st0" d="M37.8,34.1c0,0.5,0.3,0.9,0.8,0.9s1.3-0.5,1.6-0.7c0.5-0.3,1-0.5,1.6-0.8l8.6-4.9c1.2-0.7,0.4-2.3-1.2-1.3
		l-8.6,4.8c-0.5,0.3-1.1,0.5-1.5,0.8C38.6,33.2,37.9,33.5,37.8,34.1L37.8,34.1z"/>
	<path class="st0" d="M15.9,35c0.6,0,2.1-0.9-0.3-2.1l-7.8-4.4c-0.6-0.3-2.9-1.7-3.3-1.7c-0.8,0-1.1,1-0.6,1.4L9,31.1
		C9.9,31.7,15.7,35,15.9,35L15.9,35z"/>
	<path class="st0" d="M6.6,25.8c0,0.8,0.2,0.8,1.3,1.4c0.6,0.3,1,0.6,1.5,0.9c0.6,0.3,2.9,1.7,3.3,1.7c0.7,0,1.2-1,0.5-1.6
		c-0.2-0.1-5.3-3-5.6-3C6.9,25.2,6.6,25.6,6.6,25.8L6.6,25.8z"/>
	<path class="st0" d="M41.2,28.9c0,0.5,0.4,0.9,0.9,0.9l5.5-3c1-0.6,0.5-1.6-0.3-1.6c-0.4,0-4.1,2.1-4.8,2.5
		C42,28,41.2,28.2,41.2,28.9L41.2,28.9z"/>
</g>
</svg>
