<?xml version="1.0" encoding="utf-8"?>
<!-- Generator: Adobe Illustrator 24.0.2, SVG Export Plug-In . SVG Version: 6.00 Build 0)  -->
<svg version="1.1" id="Layer_1" xmlns:xodm="http://www.corel.com/coreldraw/odm/2003"
	 xmlns="http://www.w3.org/2000/svg" xmlns:xlink="http://www.w3.org/1999/xlink" x="0px" y="0px" viewBox="0 0 66 71.9"
	 style="enable-background:new 0 0 66 71.9;" xml:space="preserve">
<style type="text/css">
	.st0{fill-rule:evenodd;clip-rule:evenodd;fill:#0190D2;}
</style>
<g id="_2044077509136">
	<path class="st0" d="M8.4,66.6c0-0.3,1.6-1.9,1.9-1.9H26c0.3,0,4.1,1.6,4.1,2.2v2.5H8.4V66.6z M23.8,62.2H13.1l1.3-6.9
		c0.6-3.1-0.6-2.5,5.6-2.5c1.9,0,3.8,0,5.6,0c0,0.3-1.6,8.8-1.6,9.4C24,62.2,23.8,62.2,23.8,62.2z M34.7,39.4c1.6,0,3.1-1.9,3.4-3.4
		h2.5v9.7h-5.9V39.4z M27.2,50.3c-1.6,0.3-13.1,0-15.3,0c-1.6,0-1.3-1.9-1.3-3.4c0-1.6,1.9-0.9,3.1-1.6c0.9-0.6,1.9-1.6,1.9-2.8
		v-6.3H29c0,1.3,1.9,3.1,3.4,3.4V46c-1.9,0-2.8-0.3-4.1,1.3c-0.9,0.9-0.3,2.2-0.6,3.4L27.2,50.3z M43.1,44.1v-6.3
		c0.9,0,1.3,0.3,2.2,0.3v5.3C45,43.5,43.5,43.8,43.1,44.1z M2.2,40.6v-6.9c3.1,1.6,2.5,1.9,2.5,5C4.7,39.4,2.5,40.6,2.2,40.6z
		 M7.2,36h5.9v2.5H7.2V36z M33.8,37.2c-3.8,0-3.4-4.7,0-4.7c0.6,0,1.3,0.3,1.6,0.6C36.9,34.7,35.3,37.2,33.8,37.2z M21.3,29.4
		c0.3,0,0.9-0.3,1.3-0.6c1.3-0.6,3.1-1.3,4.1-1.9c0.3,0.3,0.3,0.9,0.6,1.3c0.3,0.6,1.6,3.8,1.6,4.1c0,0.3-0.3,0.3-0.3,0.9H23
		c-0.6-1.3-1.3-3.4-1.9-4.4L21.3,29.4z M9.4,13.4l3.8-1.6c3.1-1.3,8.1-3.1,10.6-4.4l1.3,3.1c0.6,1.9,4.1,8.8,4.1,10.3
		c0,1.3-0.9,2.5-1.6,2.8l-6.3,2.8c-0.6,0.3-0.9,0.3-1.6,0.6c-4.4,1.9-5.6-2.5-6.9-5.9L9.4,13V13.4z M6.9,11.9
		c-0.6,0-1.3-0.6-1.3-1.3c0-0.9,0.9-1.3,1.9-1.6l14.4-5.9c0.9-0.3,1.6-0.9,2.5-0.3C25,3.1,25,4.4,23.8,4.7l-7.2,2.8
		C16,7.8,15,8.1,14.1,8.4l-7.2,2.8C6.9,11.2,6.9,11.9,6.9,11.9z M3.1,10.6c0,0.3,0.3,1.3,0.3,1.6c0.6,1.3,1.9,2.2,3.4,2.2l4.1,9.4
		c1.3,2.8,1.6,4.7,4.1,5.9c1.9,0.9,2.5,0.6,3.8,0.6c0,0.9,1.3,2.5,1.3,3.4H7.5c-1.3,0-1.3,0.3-2.2-0.3c-1.6-1.3-2.2-1.9-3.8-1.9
		c-1.3,0-2.2,0.9-2.2,2.2v7.5c0,0.9,0.9,2.2,1.9,2.2h0.9c1.3,0,3.1-2.5,4.1-2.5h5.9c0.9,0,0.6,2.2-0.6,2.5c-0.9,0-1.3,0-2.2,0.6
		c-2.2,1.6-2.2,6.3-0.6,7.8c0.6,0.6,1.6,1.3,2.8,1.3L10,62.5c-1.9,0-2.2,0.6-3.1,1.6C5,66,5,66,5,69.4c0,1.6,0.9,2.8,2.5,2.8h21.9
		c2.8,0,2.5-3.1,2.5-5c0-2.2-1.9-2.8-4.1-3.8c-0.6-0.3-1.3-0.6-1.9-0.6c0-0.6,1.3-8.8,1.6-9.4c0.3-0.6,0.3-0.3,0.9-0.9
		c2.2-1.9,0.6-4.1,1.9-4.1h1.6v8.4c0,0.9,2.8,3.1,3.4,3.8c0.6,0.6,1.3,1.3,1.9,1.9c0.6,0.6,1.3,1.6,2.2,1.6s1.3-0.6,1.3-1.3
		c0-0.9-1.9-2.5-2.8-3.4c-0.6-0.6-0.9-0.9-1.6-1.6c-0.3-0.3-1.6-1.3-1.6-1.9v-7.5h5.6c2.2,0,1.9-1.3,3.1-1.6c0.3,0,0.9-0.3,1.3-0.3
		c2.8-0.6,3.4-0.9,3.4-4.1c1.6,0,3.4,0.3,3.4-1.3s-1.9-1.3-3.4-1.3c0-4.1-1.3-3.4-4.7-4.4c-1.3-0.3-0.6-0.9-1.6-1.3
		s-2.5-0.3-3.8-0.3c-0.6-2.5-3.1-4.4-5.9-3.4c-0.6,0-0.6,0.3-1.3,0.3c-0.3-0.9-1.6-3.4-1.9-4.7c0.6-0.3,0.6-0.3,0.9-0.6
		c3.4-3.8,0.6-7.5-0.9-11.3l-2.2-5c-0.3-0.9-0.6-1.9-0.9-2.5c0.9-1.6,1.3-1.3,1.3-3.1c0-1.6-1.6-3.1-3.1-3.1c-1.9,0-4.4,1.3-6.3,2.2
		l-8,3.7c-2.8,1.3-6.3,1.9-6.3,5L3.1,10.6z"/>
	<path class="st0" d="M13.1,15.3c0,0.9,2.5,6.9,3.1,8.1c0.3,0.3,0.6,2.2,1.6,2.2s1.3-0.6,1.3-1.3c0-0.3-1.9-4.4-2.2-5.3
		c-0.6-1.6-1.6-4.7-2.8-4.7c-0.6,0-1.3,0.3-1.3,1.3L13.1,15.3z"/>
	<path class="st0" d="M61.3,41.9c1.3,0,1.6-2.5,0-2.5S59.4,41.9,61.3,41.9z"/>
	<path class="st0" d="M63.5,33.5c0,1.6,2.5,1.6,2.5,0C66,31.9,63.5,31.9,63.5,33.5z"/>
	<path class="st0" d="M63.5,38.5c0,1.6,2.2,1.6,2.5,0C66,36.9,63.5,36.6,63.5,38.5z"/>
	<path class="st0" d="M52.8,40.6c0,1.9,2.5,1.9,2.5,0c0-0.6-0.9-1.9-2.2-0.9c0,0-0.6,0.6-0.6,0.9H52.8z"/>
	<path class="st0" d="M61,37.2c1.9,0,1.9-2.5,0-2.5c-0.9,0-1.6,1.3-0.9,2.2c0,0,0.6,0.6,0.9,0.6V37.2z"/>
	<path class="st0" d="M63.5,47.8c0,1.6,2.2,1.9,2.5,0.3C66.3,46.6,63.5,46.3,63.5,47.8z"/>
	<path class="st0" d="M63.5,43.1c0,0.6,0.6,1.3,1.3,1.3c1.3,0,1.6-1.3,0.9-2.2C65,41.6,63.5,41.9,63.5,43.1z"/>
	<path class="st0" d="M61.3,46.9c0.6,0,1.3-0.6,1.3-1.3c0-1.3-1.3-1.6-2.2-0.9C59.7,45.3,60,46.9,61.3,46.9z"/>
	<path class="st0" d="M56.3,43.1c0,1.6,2.5,1.9,2.5-0.3C58.8,41.9,56.3,41.3,56.3,43.1z"/>
	<path class="st0" d="M56.3,38.5c0,1.9,2.5,1.6,2.5,0.3C58.8,36.6,56.3,37.2,56.3,38.5z"/>
</g>
</svg>
