<?xml version="1.0" encoding="utf-8"?>
<!-- Generator: Adobe Illustrator 24.0.2, SVG Export Plug-In . SVG Version: 6.00 Build 0)  -->
<svg version="1.1" id="Layer_1" xmlns:xodm="http://www.corel.com/coreldraw/odm/2003"
	 xmlns="http://www.w3.org/2000/svg" xmlns:xlink="http://www.w3.org/1999/xlink" x="0px" y="0px" viewBox="0 0 59.3 59.3"
	 style="enable-background:new 0 0 59.3 59.3;" xml:space="preserve">
<style type="text/css">
	.st0{fill-rule:evenodd;clip-rule:evenodd;fill:#0190D2;}
</style>
<g id="_2043521736464">
	<path class="st0" d="M36.4,54.4V41.2c0-1.1,0.9-2.6,1.9-2.7v13.9c0,1-0.1,1.4,0.3,2c0.3,0.4,0.9,1,1.4,1h13.6
		c1.9,0,1.9-1.7,1.9-2.7V38.5c1,0.6,1.9,1.1,1.9,2.7v13.6c0,1.4-1.3,2.7-2.7,2.7H39c-0.7,0-1.4-0.4-1.9-0.9c-0.4-0.4-0.7-1.1-0.7-2
		C36.4,54.6,36.4,54.4,36.4,54.4z M59.3,3.6v0.9c0,3-0.3,3.2-3.9,3.2v16.9c0,0.4,0.3,0.3,0.7,0.4c0.7,0.3,1.3,1,1.3,1.9
		c0,2.4,0.6,5.6-2,5.7c0,4-0.3,3.7,0.7,4c1.7,0.6,3.2,2.3,3.2,4.2V55c0,2-2.3,4.3-4.3,4.3H39c-2.3,0-4.6-2.3-4.6-4.9V40.8
		c0-2,2-4.4,3.9-4.6v-3.9c-0.9,0-1.9-0.7-1.9-1.6v-4.3c0-1.9,1.9-1.4,1.9-2.1V7.4c-1.4,0-3.9,0.4-3.9-2c0-3.6,0.1-3.9,4-3.9
		c0.1-0.9,1.3-1.9,2.4-1.9h11.9c1.1,0,2.1,0.9,2.4,1.9c0.9,0,2.1-0.1,2.7,0.1c0.6,0.1,1.3,0.9,1.3,1.6L59.3,3.6z M49.8,46h3.7v7.6
		h-3.7V46z M46,45c0-0.6,0.4-1,1.1-0.9c0.6,0.1,0.7,0.7,0.7,1.4v8H46V45z M40.2,46h3.9v7.6h-3.9V46z M38.4,26.9h17.2v3.7h-3.9v2h1.9
		v11.5h-3.9c-0.3-1.3-2.4-2.9-4.4-1.3c-2,1.4,1.3,1.3-4.9,1.3V32.7H50v-2H38.5V27h-0.1V26.9z M40.2,3c0-0.6,0.3-1,0.9-1h11.5
		c0.6,0,0.9,0.4,0.9,0.9v21.9H40.1V3H40.2z M55.6,3.9h1.9v1.9h-1.9V3.9z M36.5,3.9h1.9v1.9h-1.9V3.9z"/>
	<path class="st0" d="M2,2h20.9v3.7h-5.4c-0.6,0-0.3,0.7-0.3,2h2v46.7c0,1.7-1.3,3-2.7,3h-8c-1.3,0-2.7-1.3-2.7-2.7v-47h9.5v-2H1.9
		V2H2z M0,1.9v3.9c0,2.1,2.4,1.9,3.9,1.9v47.1c0,2.4,2.4,4.6,4.3,4.6h8.4c2.3,0,4.6-2.1,4.6-4.9V7.6c4.2,0,3.9-0.1,3.9-5.7
		c0-1-0.7-2-1.9-2H2c-1,0-1.9,0.9-1.9,1.9L0,1.9z"/>
	<path class="st0" d="M9.5,28.9c0,1.1-0.1,1.7,0.3,1.7h5.4v-2.1H9.7c-0.3,0-0.3,0.1-0.3,0.3v0.1H9.5z"/>
	<polygon class="st0" points="9.5,47.8 15.3,47.8 15.3,45.8 9.5,45.8 	"/>
	<polygon class="st0" points="9.5,36.4 15.3,36.4 15.3,34.4 9.5,34.4 	"/>
	<path class="st0" d="M9.5,41.8c0,0.3,0.1,0.3,0.3,0.3h5.4v-2H9.5v1.6V41.8z"/>
	<path class="st0" d="M9.5,53.3c0,0.3,0.1,0.3,0.3,0.3h5.4v-2H9.5v1.6V53.3z"/>
</g>
</svg>
