<?xml version="1.0" encoding="utf-8"?>
<!-- Generator: Adobe Illustrator 24.0.2, SVG Export Plug-In . SVG Version: 6.00 Build 0)  -->
<svg version="1.1" id="Layer_1" xmlns:xodm="http://www.corel.com/coreldraw/odm/2003"
	 xmlns="http://www.w3.org/2000/svg" xmlns:xlink="http://www.w3.org/1999/xlink" x="0px" y="0px" viewBox="0 0 67.2 42.6"
	 style="enable-background:new 0 0 67.2 42.6;" xml:space="preserve">
<style type="text/css">
	.st0{fill-rule:evenodd;clip-rule:evenodd;fill:#0190D2;}
</style>
<g id="_2043255530800">
	<path class="st0" d="M13,40.2h-0.7V37c0.8,0,2.9-0.2,3.4-0.4V40C14.6,40,14.1,40.2,13,40.2z M6.7,36.6c0.9,0.2,2.2,0.4,3.4,0.4v3.2
		H9.4c-1.1,0-1.6-0.3-2.6-0.3L6.7,36.6L6.7,36.6z M17.9,39.1V36l2.2-1.1c0,1,0.2,2.3-0.3,3C19.6,38.3,18.5,39,17.9,39.1L17.9,39.1z
		 M2.3,34.9L4.5,36v3.1c-0.6-0.2-1.7-0.8-2-1.2C2.1,37.3,2.2,35.9,2.3,34.9L2.3,34.9z M2.3,15.9c1.5,0.8,1.5,0.9,3.5,1.5
		c3.7,1.1,9.2,0.8,12.7-0.6c0.7-0.3,1.1-0.5,1.7-0.9c0,4.6,0,9.2,0,13.9c0,2.2,0,2.9-2.9,4C13.1,35.3,5.7,35,3.1,32.6
		c-0.9-0.9-0.8-1-0.8-2.7C2.3,25.2,2.3,20.5,2.3,15.9L2.3,15.9z M0,12.1v25.5c0,1.9,2.3,3.2,3.7,3.8c3.9,1.7,11,1.7,14.9,0
		c1.4-0.6,3.7-1.9,3.7-3.8V12.1c0-1.2-1.1-2.4-1.8-2.9c-0.6-0.4-2.5-1.5-3.4-1.5c-0.3,0-0.7,1.8-0.7,2.2c2.3,0.2,7.2,3.5-1.2,5.4
		c-6.9,1.6-15.1-1.4-12.6-3.9c0.6-0.6,2.1-1.4,3.1-1.5c0-0.5-0.4-2.2-0.7-2.2C4.2,7.6,0,9.6,0,12.1L0,12.1z"/>
	<path class="st0" d="M57.1,35.9h2.2v4.5h-2.2V35.9z M57.1,2.3h2.2v4.5h-2.2V2.3z M54.9,1.1v5.6h-3.4V9H65v4.5H52.7v2.2H65v4.5h-7.9
		v2.2H65v4.5h-7.9v2.2H65v4.5H53.8v2.2h1.1v5.6c0,0.7,0.5,1.1,1.1,1.1h4.5c0.7,0,1.1-0.5,1.1-1.1v-5.6h4.5c0.7,0,1.1-0.5,1.1-1.1
		V7.8c0-0.7-0.5-1.1-1.1-1.1h-4.5V1.1c0-0.7-0.5-1.1-1.1-1.1H56C55.3,0,54.9,0.4,54.9,1.1L54.9,1.1z"/>
	<path class="st0" d="M29.3,9.9c-2,0-2.5-1.4-3.9-1.7c-0.3,0.4-1,1.5-1.1,2c1.1,0.3,5.1,4.4,8.7,0.3c0.5-0.5,0.8-1.1,1-1.8
		c0.1-0.4,0.2-0.6,0.3-1.1c0.2-1.1-0.1-0.9,2.8-0.9c0.5,0,0.5,0.5,0.5,0.9c0.5,2.6,2.2,4.7,5.1,4.7c1.8,0,3-1,4.2-1.7l1.9,2
		c-0.9,1.8-3.3,4.9,0.2,8c0.9,0.8,1.8,1,2.9,1.2c1.1,0.2,0.9-0.2,0.9,2.8c0,0.9-2,0.2-3.8,1.8c-3.4,3.1-1.1,6.1-0.1,8l-2,1.9
		c-1.8-0.9-4.9-3.3-8,0.2c-0.5,0.5-0.8,1.1-1,1.8c-0.1,0.4-0.2,0.6-0.3,1.1c-0.2,1.1,0.1,0.9-2.8,0.9c-0.9,0-0.2-2-1.8-3.8
		c-1.7-1.9-4.2-2.4-6.5-1l-2.2,1.3c0.1,0.4,0.9,1.6,1.1,2c1.4-0.3,1.9-1.7,3.9-1.7c3.7,0,2,5.5,4.2,5.5h4.8c0.8,0,1-0.5,1.2-1.2
		s0.3-1.3,0.5-1.9c0.4-1.6,1.1-2.3,2.8-2.3c1.5,0,3.2,2,4.2,2c0.6,0,4.5-4.1,4.5-4.3c0-1.4-2-2.5-2-4.6c0-1.5,1-2.2,2.2-2.5
		c3.9-1,3.2,0.2,3.2-6.5c0-1.3-1.5-1.3-3.1-1.7c-1.6-0.4-2.3-1.1-2.3-2.8c0-1.5,2-3.2,2-4.2c0-0.6-4.1-4.5-4.3-4.5
		c-1.4,0-2.5,2-4.6,2c-2.5,0-2.7-2.9-3.2-5.1h-6.7c-0.2,0.9-0.5,2.4-0.8,3.2c-0.3,0.9-1.2,1.8-2.4,1.8L29.3,9.9z"/>
	<path class="st0" d="M30.2,23.5c0-6,8.3-7.7,10.7-2.3c1.3,2.9-0.1,6.2-2.8,7.4C34.2,30.3,30.2,27.3,30.2,23.5L30.2,23.5z M28,23.1
		v0.8c0,3.8,3.6,7.4,7.4,7.4h0.8c3.8,0,7.4-3.6,7.4-7.4v-0.8c0-3.8-3.6-7.4-7.4-7.4h-0.8C31.6,15.7,28,19.3,28,23.1z"/>
	<path class="st0" d="M7.9,3.1v9.2h2.2V3.5c0-1.6,2.2-1.6,2.2,0v8.8h2.2V3.1C14.5,1.4,13,0,10.9,0C9.4,0,7.8,1.6,7.9,3.1L7.9,3.1z"
		/>
	<polygon class="st0" points="4.5,31.4 6.7,31.4 6.7,19 4.5,19 	"/>
	<polygon class="st0" points="15.7,31.4 17.9,31.4 17.9,19 15.7,19 	"/>
	<polygon class="st0" points="10.1,32.5 12.3,32.5 12.3,20.2 10.1,20.2 	"/>
</g>
</svg>
