<?xml version="1.0" encoding="utf-8"?>
<!-- Generator: Adobe Illustrator 24.0.2, SVG Export Plug-In . SVG Version: 6.00 Build 0)  -->
<svg version="1.1" xmlns="http://www.w3.org/2000/svg" xmlns:xlink="http://www.w3.org/1999/xlink" x="0px" y="0px"
	 viewBox="0 0 525 154" style="enable-background:new 0 0 525 154;" xml:space="preserve">
<style type="text/css">
	.st0{fill:#9DC9ED;}
	.st1{fill:#FFFFFF;}
	.st2{clip-path:url(#SVGID_2_);}
	.st3{clip-path:url(#SVGID_4_);}
	.st4{clip-path:url(#SVGID_6_);}
	.st5{clip-path:url(#SVGID_8_);}
	.st6{clip-path:url(#SVGID_10_);}
</style>
<g id="Layer_2">
</g>
<g id="Layer_1">
	<g>
		<g>
			<g>
				<g>
					<g>
						<g>
							<g>
								<g>
									<path class="st0" d="M84.6,87 M75.9,87c-5.8,4.6-13.6,6.8-21.4,5.2C40.3,89.4,31.1,75.6,34,61.4
										C36.8,47.2,50.6,38,64.8,40.8c3.3,0.6,6.3,1.9,8.9,3.6l9.5,0c-0.9-1-1.9-2-3-2.8l1.7-6.8c-2.5-1.8-5.3-3.2-8.2-4.4
										l-4.7,5.2c-1-0.3-2-0.5-3-0.7c-0.4-0.1-0.7-0.1-1-0.2L63,28c-3.1-0.3-6.3-0.2-9.3,0.3l-1.5,6.8c-1.3,0.3-2.7,0.7-4,1.2
										l-5-4.8c-2.8,1.3-5.5,3-7.9,4.9l2.1,6.6c-1,0.9-2,1.9-2.8,3l-6.8-1.7c-1.8,2.5-3.2,5.3-4.4,8.2l5.2,4.7c-0.3,1-0.5,2-0.7,3
										c-0.1,0.4-0.1,0.7-0.2,1l-6.7,1.9c-0.3,3.1-0.2,6.3,0.3,9.3l6.8,1.5c0.3,1.3,0.7,2.7,1.2,4l-4.8,5c1.3,2.8,3,5.5,4.9,7.9
										l6.6-2.1c0.9,1,1.9,2,3,2.8l-1.7,6.8c2.5,1.8,5.3,3.2,8.2,4.4l4.7-5.2c1,0.3,2,0.5,3,0.7c0.3,0.1,0.7,0.1,1,0.2l1.9,6.7
										c3.1,0.3,6.3,0.2,9.3-0.3l1.5-6.8c1.3-0.3,2.7-0.7,4-1.2l5,4.8c2.8-1.3,5.5-3,7.9-4.9L81.8,90c1-0.9,1.9-1.9,2.8-3
										 M75.9,87"/>
								</g>
							</g>
						</g>
						<g>
							<g>
								<path class="st0" d="M75.9,87h8.7H75.9z"/>
							</g>
						</g>
					</g>
				</g>
			</g>
			<g>
				<g>
					<g>
						<g>
							<g>
								<g>
									<path class="st1" d="M89.5,50.8c3.5,1.2,6.1,2.9,8,5.1c1.9,2.2,2.8,4.8,2.8,7.8c0,3-0.9,5.6-2.8,7.8
										c-1.9,2.2-4.5,3.9-8,5.1c-3.4,1.2-7.5,1.8-12.2,1.8h-9v10.4H53.6V49h23.7C81.9,49,86,49.6,89.5,50.8z M83.2,68
										c1.5-1,2.3-2.4,2.3-4.3c0-1.9-0.8-3.3-2.3-4.3c-1.5-1-3.8-1.5-6.8-1.5h-8.1v11.7h8.1C79.4,69.5,81.6,69,83.2,68z"/>
								</g>
							</g>
						</g>
						<g>
							<g>
								<g>
									<path class="st1" d="M127.5,78.2h-8v10.6h-14.6V49h23.7c4.7,0,8.8,0.6,12.2,1.8c3.5,1.2,6.1,2.9,8,5.1s2.8,4.8,2.8,7.8
										c0,2.9-0.9,5.4-2.6,7.5c-1.7,2.1-4.3,3.8-7.5,5l11.2,12.5h-15.7L127.5,78.2z M134.5,59.4c-1.5-1-3.8-1.5-6.8-1.5h-8.1v11.7
										h8.1c3,0,5.3-0.5,6.8-1.5c1.5-1,2.3-2.4,2.3-4.3C136.8,61.8,136,60.4,134.5,59.4z"/>
								</g>
							</g>
						</g>
						<g>
							<g>
								<g>
									<path class="st1" d="M168.6,86.9c-4.4-1.8-7.8-4.2-10.3-7.4c-2.5-3.1-3.7-6.7-3.7-10.6c0-3.9,1.2-7.5,3.7-10.6
										c2.5-3.1,5.9-5.6,10.3-7.4c4.4-1.8,9.3-2.7,14.8-2.7c5.5,0,10.4,0.9,14.8,2.7c4.4,1.8,7.8,4.2,10.3,7.4
										c2.5,3.1,3.7,6.7,3.7,10.6c0,3.9-1.2,7.5-3.7,10.6c-2.5,3.1-5.9,5.6-10.3,7.4c-4.4,1.8-9.3,2.7-14.8,2.7
										C177.8,89.6,172.9,88.7,168.6,86.9z M190.4,78.8c2.1-0.9,3.8-2.3,5-4c1.2-1.7,1.8-3.7,1.8-5.9c0-2.2-0.6-4.2-1.8-5.9
										c-1.2-1.7-2.9-3.1-5-4c-2.1-0.9-4.5-1.4-7.1-1.4s-5,0.5-7.1,1.4c-2.1,0.9-3.8,2.3-5,4s-1.8,3.7-1.8,5.9
										c0,2.2,0.6,4.2,1.8,5.9c1.2,1.7,2.9,3.1,5,4c2.1,0.9,4.5,1.4,7.1,1.4S188.3,79.8,190.4,78.8z"/>
								</g>
							</g>
						</g>
						<g>
							<g>
								<g>
									<path class="st1" d="M227.6,57.9h-15.9V49h46.4v8.9h-15.8v30.9h-14.6V57.9z"/>
								</g>
							</g>
						</g>
						<g>
							<g>
								<defs>
									<path id="SVGID_1_" d="M307.9,88.8l-0.1-21.1l-13.3,17.2h-6.5l-13.2-16.6v20.5h-13.5V49h12.1l18.2,23l17.8-23h12.1
										l0.1,39.8H307.9z"/>
								</defs>
								<use xlink:href="#SVGID_1_"  style="overflow:visible;fill:#9DC9ED;"/>
								<clipPath id="SVGID_2_">
									<use xlink:href="#SVGID_1_"  style="overflow:visible;"/>
								</clipPath>
								<g class="st2">
									<g>
										<path class="st0" d="M261.1,49v39.8V49z"/>
									</g>
								</g>
								<g class="st2">
									<g>
										<rect x="261.1" y="49" class="st0" width="12" height="39.8"/>
									</g>
								</g>
								<g class="st2">
									<g>
										<rect x="273.1" y="49" class="st0" width="12" height="39.8"/>
									</g>
								</g>
								<g class="st2">
									<g>
										<rect x="285.1" y="49" class="st0" width="12" height="39.8"/>
									</g>
								</g>
								<g class="st2">
									<g>
										<rect x="297" y="49" class="st0" width="12" height="39.8"/>
									</g>
								</g>
								<g class="st2">
									<g>
										<rect x="309" y="49" class="st0" width="12" height="39.8"/>
									</g>
								</g>
								<g class="st2">
									<g>
										<rect x="321" y="49" class="st0" width="0.3" height="39.8"/>
									</g>
								</g>
							</g>
						</g>
						<g>
							<g>
								<defs>
									<path id="SVGID_3_" d="M335.2,84.8c-4.3-3.2-6.4-7.8-6.4-13.7V49h14.6v21.7c0,6.4,3.3,9.6,9.8,9.6c6.5,0,9.8-3.2,9.8-9.6
										V49h14.4V71c0,5.9-2.1,10.5-6.4,13.7c-4.3,3.2-10.2,4.8-17.9,4.8S339.4,88,335.2,84.8z"/>
								</defs>
								<use xlink:href="#SVGID_3_"  style="overflow:visible;fill:#9DC9ED;"/>
								<clipPath id="SVGID_4_">
									<use xlink:href="#SVGID_3_"  style="overflow:visible;"/>
								</clipPath>
								<g class="st3">
									<g>
										<path class="st0" d="M328.8,49v40.6V49z"/>
									</g>
								</g>
								<g class="st3">
									<g>
										<rect x="328.8" y="49" class="st0" width="9.7" height="40.6"/>
									</g>
								</g>
								<g class="st3">
									<g>
										<rect x="338.5" y="49" class="st0" width="9.7" height="40.6"/>
									</g>
								</g>
								<g class="st3">
									<g>
										<rect x="348.1" y="49" class="st0" width="9.7" height="40.6"/>
									</g>
								</g>
								<g class="st3">
									<g>
										<rect x="357.8" y="49" class="st0" width="9.7" height="40.6"/>
									</g>
								</g>
								<g class="st3">
									<g>
										<rect x="367.5" y="49" class="st0" width="9.7" height="40.6"/>
									</g>
								</g>
								<g class="st3">
									<g>
										<rect x="377.2" y="49" class="st0" width="0.3" height="40.6"/>
									</g>
								</g>
							</g>
						</g>
						<g>
							<g>
								<defs>
									<path id="SVGID_5_" d="M434.2,49v39.8h-12.1l-22.9-21.2v21.2h-14.3V49H397l22.9,21.2V49H434.2z"/>
								</defs>
								<use xlink:href="#SVGID_5_"  style="overflow:visible;fill:#9DC9ED;"/>
								<clipPath id="SVGID_6_">
									<use xlink:href="#SVGID_5_"  style="overflow:visible;"/>
								</clipPath>
								<g class="st4">
									<g>
										<path class="st0" d="M384.9,49v39.8V49z"/>
									</g>
								</g>
								<g class="st4">
									<g>
										<rect x="384.9" y="49" class="st0" width="9.8" height="39.8"/>
									</g>
								</g>
								<g class="st4">
									<g>
										<rect x="394.7" y="49" class="st0" width="9.8" height="39.8"/>
									</g>
								</g>
								<g class="st4">
									<g>
										<rect x="404.5" y="49" class="st0" width="9.8" height="39.8"/>
									</g>
								</g>
								<g class="st4">
									<g>
										<rect x="414.3" y="49" class="st0" width="9.8" height="39.8"/>
									</g>
								</g>
								<g class="st4">
									<g>
										<rect x="424.1" y="49" class="st0" width="9.8" height="39.8"/>
									</g>
								</g>
								<g class="st4">
									<g>
										<rect x="433.9" y="49" class="st0" width="0.3" height="39.8"/>
									</g>
								</g>
							</g>
						</g>
						<g>
							<g>
								<defs>
									<path id="SVGID_7_" d="M442.1,49h24.5c5.7,0,10.7,0.8,15.1,2.4s7.8,3.9,10.2,6.9c2.4,3,3.6,6.5,3.6,10.5
										c0,4-1.2,7.5-3.6,10.5c-2.4,3-5.8,5.3-10.2,6.9c-4.4,1.6-9.4,2.4-15.1,2.4h-24.5V49z M466,79.8c4.4,0,8-1,10.7-2.9
										c2.7-1.9,4-4.6,4-8s-1.3-6.1-4-8C474,58.9,470.4,58,466,58h-9.2v21.8H466z"/>
								</defs>
								<use xlink:href="#SVGID_7_"  style="overflow:visible;fill:#9DC9ED;"/>
								<clipPath id="SVGID_8_">
									<use xlink:href="#SVGID_7_"  style="overflow:visible;"/>
								</clipPath>
								<g class="st5">
									<g>
										<rect x="456.7" y="58" class="st0" width="6.6" height="21.8"/>
									</g>
								</g>
								<g class="st5">
									<g>
										<rect x="463.3" y="58" class="st0" width="10.6" height="21.8"/>
									</g>
								</g>
								<g class="st5">
									<g>
										<rect x="474" y="58" class="st0" width="6.7" height="21.8"/>
									</g>
								</g>
								<g class="st5">
									<g>
										<path class="st0" d="M442.1,49v39.8V49z"/>
									</g>
								</g>
								<g class="st5">
									<g>
										<rect x="442.1" y="49" class="st0" width="10.6" height="39.8"/>
									</g>
								</g>
								<g class="st5">
									<g>
										<rect x="452.7" y="49" class="st0" width="10.6" height="39.8"/>
									</g>
								</g>
								<g class="st5">
									<g>
										<rect x="463.3" y="49" class="st0" width="10.6" height="39.8"/>
									</g>
								</g>
								<g class="st5">
									<g>
										<rect x="474" y="49" class="st0" width="10.6" height="39.8"/>
									</g>
								</g>
								<g class="st5">
									<g>
										<rect x="484.6" y="49" class="st0" width="10.6" height="39.8"/>
									</g>
								</g>
								<g class="st5">
									<g>
										<rect x="495.2" y="49" class="st0" width="0.3" height="39.8"/>
									</g>
								</g>
							</g>
						</g>
						<g>
							<g>
								<defs>
									<path id="SVGID_9_" d="M500.7,49h14.6v39.8h-14.6V49z"/>
								</defs>
								<use xlink:href="#SVGID_9_"  style="overflow:visible;fill:#9DC9ED;"/>
								<clipPath id="SVGID_10_">
									<use xlink:href="#SVGID_9_"  style="overflow:visible;"/>
								</clipPath>
								<g class="st6">
									<g>
										<path class="st0" d="M500.7,49v39.8V49z"/>
									</g>
								</g>
								<g class="st6">
									<g>
										<rect x="500.7" y="49" class="st0" width="2.9" height="39.8"/>
									</g>
								</g>
								<g class="st6">
									<g>
										<rect x="503.6" y="49" class="st0" width="2.9" height="39.8"/>
									</g>
								</g>
								<g class="st6">
									<g>
										<rect x="506.6" y="49" class="st0" width="2.9" height="39.8"/>
									</g>
								</g>
								<g class="st6">
									<g>
										<rect x="509.5" y="49" class="st0" width="2.9" height="39.8"/>
									</g>
								</g>
								<g class="st6">
									<g>
										<rect x="512.4" y="49" class="st0" width="2.9" height="39.8"/>
									</g>
								</g>
								<g class="st6">
									<g>
										<rect x="515.3" y="49" class="st0" width="0.1" height="39.8"/>
									</g>
								</g>
							</g>
						</g>
					</g>
				</g>
			</g>
			<g>
				<g>
					<line class="st0" x1="73.7" y1="44.4" x2="83.1" y2="44.4"/>
				</g>
			</g>
			<g>
				<g>
					<line class="st0" x1="75.9" y1="87" x2="84.6" y2="87"/>
				</g>
			</g>
			<path class="st1" d="M85.5,115.9l-5-12.8c-0.6-1.5-2.3-2.3-3.8-1.7c-1.5,0.6-2.3,2.3-1.7,3.8l1.7,4.3
				C53.1,117,27.2,105,18.1,81.6C9,58.1,19.8,31.8,42.3,21.3l1.4,3.5c0.5,1.2,1.6,1.9,2.8,1.9c0.4,0,0.7-0.1,1.1-0.2
				c1.5-0.6,2.3-2.3,1.7-3.8l-5-12.8c-0.6-1.5-2.3-2.3-3.8-1.7c-1.5,0.6-2.3,2.3-1.7,3.8l1.7,4.4c-11.8,5.4-21.1,14.8-26.4,26.7
				c-5.6,12.9-5.9,27.2-0.8,40.2c5.1,13.1,15,23.4,27.9,29c6.8,3,13.9,4.5,21.1,4.5c5.5,0,11-0.9,16.3-2.6L80,118
				c0.5,1.2,1.6,1.9,2.8,1.9c0.4,0,0.7-0.1,1.1-0.2C85.4,119.1,86.1,117.4,85.5,115.9z"/>
		</g>
		<g>
			<path class="st1" d="M161.7,140.2c-1.6,0-2.9-0.2-4-0.5s-2.1-0.7-3.1-1.2v-3.6h0.2c1,0.9,2,1.6,3.2,2.1c1.2,0.5,2.4,0.7,3.5,0.7
				c1.6,0,2.8-0.3,3.6-1c0.8-0.7,1.2-1.5,1.2-2.6c0-0.9-0.2-1.6-0.6-2.1s-1.1-0.9-2-1.2c-0.7-0.2-1.3-0.4-1.8-0.5
				c-0.6-0.1-1.2-0.3-2.1-0.5c-0.7-0.2-1.4-0.4-2-0.7c-0.6-0.3-1.1-0.7-1.6-1.2c-0.4-0.5-0.8-1-1-1.7c-0.2-0.6-0.4-1.4-0.4-2.2
				c0-1.8,0.7-3.2,2.1-4.4s3.1-1.8,5.2-1.8c1.2,0,2.4,0.1,3.4,0.4c1.1,0.2,2.1,0.6,3,1v3.5h-0.2c-0.7-0.6-1.6-1.2-2.7-1.7
				s-2.2-0.7-3.4-0.7c-1.3,0-2.4,0.3-3.3,0.9c-0.8,0.6-1.2,1.5-1.2,2.5c0,0.9,0.2,1.7,0.7,2.2c0.5,0.5,1.2,0.9,2.1,1.2
				c0.6,0.2,1.4,0.4,2.2,0.6c0.9,0.2,1.6,0.4,2.2,0.6c1.5,0.5,2.6,1.1,3.3,2.1c0.7,0.9,1,2.1,1,3.4c0,0.8-0.2,1.7-0.5,2.5
				c-0.3,0.8-0.8,1.5-1.5,2.1c-0.7,0.6-1.5,1.1-2.4,1.5C164.2,140,163.1,140.2,161.7,140.2z"/>
			<path class="st1" d="M187.7,120.6c0.8,1,1.5,2.1,1.9,3.5c0.5,1.4,0.7,3,0.7,4.8c0,1.8-0.2,3.3-0.7,4.8s-1.1,2.6-1.9,3.6
				c-0.9,1-1.9,1.8-3.1,2.2c-1.2,0.5-2.5,0.7-3.9,0.7c-1.5,0-2.8-0.2-4-0.7c-1.2-0.5-2.2-1.2-3-2.2c-0.8-1-1.5-2.1-1.9-3.6
				c-0.4-1.4-0.7-3-0.7-4.8c0-1.8,0.2-3.4,0.7-4.8s1.1-2.6,1.9-3.6c0.8-1,1.8-1.7,3-2.2c1.2-0.5,2.5-0.8,4-0.8c1.5,0,2.8,0.3,4,0.8
				S186.8,119.7,187.7,120.6z M187.3,129c0-1.4-0.2-2.7-0.5-3.8c-0.3-1.1-0.7-2-1.3-2.8c-0.6-0.7-1.3-1.3-2.1-1.7
				c-0.8-0.4-1.7-0.6-2.7-0.6c-1,0-2,0.2-2.7,0.5c-0.8,0.4-1.5,0.9-2.1,1.7c-0.6,0.7-1,1.7-1.3,2.8s-0.5,2.4-0.5,3.8
				c0,2.8,0.6,5,1.8,6.5c1.2,1.5,2.8,2.3,4.8,2.3c2,0,3.6-0.8,4.8-2.3C186.7,134,187.3,131.8,187.3,129z"/>
			<path class="st1" d="M206,139.8h-12.6v-21.7h2.9v19.1h9.7V139.8z"/>
			<path class="st1" d="M215.9,140.3c-1.3,0-2.4-0.2-3.3-0.5s-1.8-0.8-2.4-1.5c-0.8-0.8-1.3-1.7-1.6-2.7c-0.3-1.1-0.5-2.4-0.5-3.9
				v-13.5h2.9v13.5c0,1,0.1,1.8,0.2,2.5s0.4,1.3,0.7,1.8c0.4,0.6,0.9,1,1.6,1.3c0.7,0.3,1.5,0.5,2.4,0.5c0.9,0,1.7-0.2,2.4-0.5
				c0.7-0.3,1.2-0.7,1.6-1.3c0.4-0.6,0.6-1.2,0.7-1.8c0.1-0.7,0.2-1.5,0.2-2.5v-13.6h2.9v13.5c0,1.5-0.2,2.8-0.5,3.9s-0.8,2-1.6,2.7
				c-0.7,0.7-1.5,1.2-2.4,1.5C218.3,140.1,217.2,140.3,215.9,140.3z"/>
			<path class="st1" d="M236.3,140.2c-1.4,0-2.7-0.2-3.9-0.7c-1.2-0.5-2.2-1.2-3.1-2.1c-0.9-0.9-1.5-2.1-2-3.5
				c-0.5-1.4-0.7-3-0.7-4.9c0-1.8,0.2-3.4,0.7-4.8c0.5-1.4,1.1-2.5,2-3.5c0.9-1,1.9-1.7,3.1-2.2s2.5-0.8,4-0.8c0.7,0,1.4,0.1,2,0.2
				c0.6,0.1,1.2,0.2,1.8,0.4c0.5,0.1,0.9,0.3,1.4,0.5c0.5,0.2,1,0.5,1.5,0.7v3.5h-0.2c-0.3-0.2-0.6-0.5-1-0.8
				c-0.4-0.3-0.9-0.7-1.5-1c-0.6-0.3-1.2-0.5-1.8-0.7c-0.7-0.2-1.4-0.3-2.3-0.3c-0.9,0-1.8,0.2-2.6,0.6s-1.5,0.9-2.2,1.7
				c-0.6,0.7-1.1,1.7-1.4,2.8c-0.3,1.1-0.5,2.4-0.5,3.8c0,1.5,0.2,2.8,0.5,3.8c0.4,1.1,0.9,2,1.5,2.7c0.6,0.7,1.3,1.3,2.1,1.6
				c0.8,0.4,1.7,0.5,2.6,0.5c0.8,0,1.6-0.1,2.3-0.3c0.7-0.2,1.3-0.5,1.9-0.8c0.5-0.3,1-0.6,1.4-0.9c0.4-0.3,0.7-0.6,0.9-0.8h0.2v3.4
				c-0.5,0.2-0.9,0.4-1.3,0.6c-0.4,0.2-0.9,0.4-1.5,0.6c-0.1,0-0.2,0.1-0.3,0.1c-0.1,0-0.2,0.1-0.3,0.1c0,0.1,0,0.3,0,0.6
				c0,0.2,0,0.5,0,0.8c0,1.4-0.4,2.6-1.2,3.5c-0.8,0.9-1.9,1.3-3.3,1.3c-0.4,0-0.8,0-1.3-0.1c-0.5-0.1-0.9-0.1-1.3-0.3v-2.3h0.1
				c0.2,0.1,0.5,0.2,0.9,0.3c0.4,0.1,0.8,0.2,1.2,0.2c0.9,0,1.6-0.2,2-0.6s0.6-1,0.6-1.8c0-0.2,0-0.4,0-0.6c0-0.2,0-0.4,0-0.7
				c-0.2,0-0.3,0-0.5,0S236.6,140.2,236.3,140.2z"/>
			<path class="st1" d="M243.4,139.8l7.3-21.7h3.6l7.3,21.7h-3l-2-6.1h-8.3l-2,6.1H243.4z M258.3,111.2c-0.1,1.5-0.5,2.7-1.1,3.4
				c-0.6,0.8-1.5,1.1-2.5,1.1c-0.5,0-1-0.1-1.4-0.3c-0.4-0.2-0.8-0.5-1.3-0.9c-0.4-0.4-0.8-0.7-1.1-0.9s-0.6-0.3-0.9-0.3
				c-0.5,0-0.8,0.2-1,0.7c-0.2,0.4-0.3,1-0.3,1.8h-2c0.1-1.5,0.4-2.6,1.1-3.4c0.7-0.8,1.5-1.1,2.5-1.1c0.5,0,1,0.1,1.4,0.3
				s0.8,0.5,1.3,0.8c0.4,0.4,0.8,0.7,1.1,0.9s0.6,0.3,0.9,0.3c0.5,0,0.8-0.2,1-0.7c0.2-0.4,0.3-1,0.4-1.7H258.3z M255.8,131.3
				l-3.4-10.2l-3.3,10.2H255.8z"/>
			<path class="st1" d="M279,120.6c0.8,1,1.5,2.1,1.9,3.5c0.5,1.4,0.7,3,0.7,4.8c0,1.8-0.2,3.3-0.7,4.8c-0.4,1.4-1.1,2.6-1.9,3.6
				c-0.9,1-1.9,1.8-3.1,2.2c-1.2,0.5-2.5,0.7-3.9,0.7c-1.5,0-2.8-0.2-4-0.7c-1.2-0.5-2.2-1.2-3-2.2c-0.8-1-1.5-2.1-1.9-3.6
				c-0.4-1.4-0.7-3-0.7-4.8c0-1.8,0.2-3.4,0.7-4.8c0.5-1.4,1.1-2.6,1.9-3.6c0.8-1,1.8-1.7,3-2.2c1.2-0.5,2.5-0.8,4-0.8
				c1.5,0,2.8,0.3,4,0.8S278.2,119.7,279,120.6z M278.6,129c0-1.4-0.2-2.7-0.5-3.8c-0.3-1.1-0.7-2-1.3-2.8c-0.6-0.7-1.3-1.3-2.1-1.7
				c-0.8-0.4-1.7-0.6-2.7-0.6c-1,0-2,0.2-2.8,0.5c-0.8,0.4-1.5,0.9-2.1,1.7c-0.6,0.7-1,1.7-1.3,2.8c-0.3,1.1-0.5,2.4-0.5,3.8
				c0,2.8,0.6,5,1.8,6.5c1.2,1.5,2.8,2.3,4.8,2.3c2,0,3.6-0.8,4.8-2.3C278,134,278.6,131.8,278.6,129z"/>
			<path class="st1" d="M294.1,139.8v-21.7h13.6v2.6H297v5.9h10v2.6h-10v8.1h10.7v2.6H294.1z"/>
			<path class="st1" d="M329.5,139.8h-2.9v-18.7l-5.7,12.7h-1.7l-5.6-12.7v18.7h-2.7v-21.7h3.9l5.4,12.1l5.2-12.1h4V139.8z"/>
			<path class="st1" d="M356.2,120.7h-10.1v6.1h9.7v2.6h-9.7v10.5h-2.9v-21.7h13V120.7z"/>
			<path class="st1" d="M355.1,139.8l7.3-21.7h3.6l7.3,21.7h-3l-2-6.1H360l-2,6.1H355.1z M367.4,131.3l-3.4-10.2l-3.3,10.2H367.4z"
				/>
			<path class="st1" d="M390,133.2c0,1.1-0.2,2-0.6,2.9c-0.4,0.8-1,1.5-1.6,2c-0.8,0.6-1.7,1.1-2.6,1.4s-2.1,0.4-3.6,0.4h-6.2v-21.7
				h5.8c1.5,0,2.7,0.1,3.5,0.2c0.8,0.1,1.5,0.3,2.2,0.7c0.8,0.4,1.3,1,1.7,1.6c0.4,0.7,0.5,1.5,0.5,2.4c0,1-0.3,1.9-0.8,2.7
				s-1.3,1.4-2.2,1.9v0.1c1.3,0.3,2.3,1,3,1.9C389.7,130.6,390,131.8,390,133.2z M386,123.4c0-0.5-0.1-1-0.3-1.4s-0.5-0.7-0.8-0.9
				c-0.5-0.3-1-0.4-1.6-0.5c-0.6-0.1-1.4-0.1-2.4-0.1h-2.8v6.4h3.3c0.9,0,1.6,0,2-0.1c0.4-0.1,0.9-0.3,1.3-0.6
				c0.4-0.3,0.7-0.7,0.9-1.1C385.9,124.7,386,124.1,386,123.4z M387,133.3c0-0.8-0.1-1.5-0.3-2c-0.2-0.5-0.7-1-1.4-1.3
				c-0.5-0.2-1-0.4-1.5-0.5c-0.5-0.1-1.3-0.1-2.3-0.1h-3.3v8h2.3c1.3,0,2.3-0.1,3-0.2c0.7-0.1,1.4-0.4,1.9-0.7
				c0.5-0.4,0.9-0.8,1.2-1.3C386.9,134.7,387,134,387,133.3z"/>
			<path class="st1" d="M409.7,139.8H406l-6.9-8.6h-3.3v8.6h-2.9v-21.7h5.6c1.2,0,2.3,0.1,3.1,0.2c0.8,0.1,1.6,0.5,2.4,0.9
				c0.8,0.5,1.4,1.1,1.8,1.9c0.4,0.8,0.7,1.7,0.7,2.9c0,1.6-0.4,2.9-1.2,4c-0.8,1.1-1.9,1.9-3.3,2.4L409.7,139.8z M403.5,124.2
				c0-0.6-0.1-1.2-0.3-1.7c-0.2-0.5-0.6-0.9-1-1.2c-0.4-0.3-0.9-0.5-1.4-0.6c-0.5-0.1-1.2-0.2-2-0.2h-2.9v8.2h2.5
				c0.8,0,1.6-0.1,2.2-0.2c0.7-0.1,1.2-0.4,1.7-0.9c0.4-0.4,0.7-0.9,0.9-1.5C403.4,125.6,403.5,125,403.5,124.2z"/>
			<path class="st1" d="M419,139.8h-8.4v-2.2h2.8v-17.3h-2.8v-2.2h8.4v2.2h-2.8v17.3h2.8V139.8z"/>
			<path class="st1" d="M431.1,140.2c-1.4,0-2.7-0.2-3.9-0.7c-1.2-0.5-2.2-1.2-3.1-2.1c-0.9-0.9-1.5-2.1-2-3.5
				c-0.5-1.4-0.7-3-0.7-4.9c0-1.8,0.2-3.4,0.7-4.8s1.1-2.5,2-3.5c0.9-1,1.9-1.7,3.1-2.2s2.5-0.8,4-0.8c0.7,0,1.4,0.1,2,0.2
				c0.6,0.1,1.2,0.2,1.8,0.4c0.5,0.1,0.9,0.3,1.4,0.5c0.5,0.2,1,0.5,1.5,0.7v3.5h-0.2c-0.3-0.2-0.6-0.5-1-0.8s-0.9-0.7-1.5-1
				c-0.6-0.3-1.2-0.5-1.8-0.7c-0.7-0.2-1.4-0.3-2.3-0.3c-0.9,0-1.8,0.2-2.6,0.6c-0.8,0.4-1.5,0.9-2.2,1.7c-0.6,0.7-1.1,1.7-1.4,2.8
				c-0.3,1.1-0.5,2.4-0.5,3.8c0,1.5,0.2,2.8,0.5,3.8c0.4,1.1,0.9,2,1.5,2.7c0.6,0.7,1.3,1.3,2.1,1.6s1.7,0.5,2.6,0.5
				c0.8,0,1.6-0.1,2.3-0.3c0.7-0.2,1.3-0.5,1.9-0.8c0.5-0.3,1-0.6,1.4-0.9c0.4-0.3,0.7-0.6,0.9-0.8h0.2v3.4
				c-0.5,0.2-0.9,0.4-1.4,0.6c-0.4,0.2-0.9,0.4-1.5,0.6c-0.6,0.2-1.2,0.4-1.8,0.5S431.9,140.2,431.1,140.2z"/>
			<path class="st1" d="M438.2,139.8l7.3-21.7h3.6l7.3,21.7h-3l-2-6.1H443l-2,6.1H438.2z M450.5,131.3l-3.4-10.2l-3.3,10.2H450.5z"
				/>
			<path class="st1" d="M466.9,140.2c-1.4,0-2.7-0.2-3.9-0.7c-1.2-0.5-2.2-1.2-3.1-2.1c-0.9-0.9-1.5-2.1-2-3.5
				c-0.5-1.4-0.7-3-0.7-4.9c0-1.8,0.2-3.4,0.7-4.8s1.1-2.5,2-3.5c0.9-1,1.9-1.7,3.1-2.2c1.2-0.5,2.5-0.8,4-0.8c0.7,0,1.4,0.1,2,0.2
				c0.6,0.1,1.2,0.2,1.8,0.4c0.5,0.1,0.9,0.3,1.4,0.5c0.5,0.2,1,0.5,1.5,0.7v3.5h-0.2c-0.3-0.2-0.6-0.5-1-0.8s-0.9-0.7-1.5-1
				c-0.6-0.3-1.2-0.5-1.8-0.7c-0.7-0.2-1.4-0.3-2.3-0.3c-0.9,0-1.8,0.2-2.6,0.6c-0.8,0.4-1.5,0.9-2.2,1.7c-0.6,0.7-1.1,1.7-1.4,2.8
				c-0.3,1.1-0.5,2.4-0.5,3.8c0,1.5,0.2,2.8,0.5,3.8c0.4,1.1,0.9,2,1.5,2.7c0.6,0.7,1.3,1.3,2.1,1.6s1.7,0.5,2.6,0.5
				c0.8,0,1.6-0.1,2.3-0.3c0.7-0.2,1.3-0.5,1.9-0.8c0.5-0.3,1-0.6,1.4-0.9c0.4-0.3,0.7-0.6,0.9-0.8h0.2v3.4
				c-0.5,0.2-0.9,0.4-1.4,0.6c-0.4,0.2-0.9,0.4-1.5,0.6c-0.1,0-0.2,0.1-0.3,0.1c-0.1,0-0.2,0.1-0.3,0.1c0,0.1,0,0.3,0,0.6
				s0,0.5,0,0.8c0,1.4-0.4,2.6-1.2,3.5c-0.8,0.9-1.9,1.3-3.3,1.3c-0.4,0-0.8,0-1.3-0.1s-0.9-0.1-1.3-0.3v-2.3h0.1
				c0.2,0.1,0.5,0.2,0.9,0.3c0.4,0.1,0.8,0.2,1.2,0.2c0.9,0,1.6-0.2,2-0.6c0.4-0.4,0.6-1,0.6-1.8c0-0.2,0-0.4,0-0.6
				c0-0.2,0-0.4,0-0.7c-0.2,0-0.3,0-0.5,0C467.3,140.2,467.1,140.2,466.9,140.2z"/>
			<path class="st1" d="M474,139.8l7.3-21.7h3.6l7.3,21.7h-3l-2-6.1h-8.3l-2,6.1H474z M488.8,111.2c-0.1,1.5-0.5,2.7-1.1,3.4
				c-0.6,0.8-1.5,1.1-2.5,1.1c-0.5,0-1-0.1-1.4-0.3c-0.4-0.2-0.8-0.5-1.3-0.9c-0.4-0.4-0.8-0.7-1.1-0.9c-0.3-0.2-0.6-0.3-0.9-0.3
				c-0.5,0-0.8,0.2-1,0.7c-0.2,0.4-0.3,1-0.3,1.8h-2c0.1-1.5,0.4-2.6,1.1-3.4c0.7-0.8,1.5-1.1,2.5-1.1c0.5,0,1,0.1,1.4,0.3
				s0.8,0.5,1.3,0.8c0.4,0.4,0.8,0.7,1.1,0.9c0.3,0.2,0.6,0.3,0.9,0.3c0.5,0,0.8-0.2,1-0.7c0.2-0.4,0.3-1,0.4-1.7H488.8z
				 M486.4,131.3l-3.4-10.2l-3.3,10.2H486.4z"/>
			<path class="st1" d="M509.6,120.6c0.8,1,1.5,2.1,1.9,3.5s0.7,3,0.7,4.8c0,1.8-0.2,3.3-0.7,4.8c-0.4,1.4-1.1,2.6-1.9,3.6
				c-0.9,1-1.9,1.8-3.1,2.2c-1.2,0.5-2.5,0.7-3.9,0.7c-1.5,0-2.8-0.2-4-0.7c-1.2-0.5-2.2-1.2-3-2.2c-0.8-1-1.5-2.1-1.9-3.6
				c-0.4-1.4-0.7-3-0.7-4.8c0-1.8,0.2-3.4,0.7-4.8c0.5-1.4,1.1-2.6,1.9-3.6c0.8-1,1.8-1.7,3-2.2c1.2-0.5,2.5-0.8,4-0.8
				c1.5,0,2.8,0.3,4,0.8C507.8,119,508.8,119.7,509.6,120.6z M509.2,129c0-1.4-0.2-2.7-0.5-3.8s-0.7-2-1.3-2.8
				c-0.6-0.7-1.3-1.3-2.1-1.7c-0.8-0.4-1.7-0.6-2.7-0.6c-1,0-2,0.2-2.8,0.5c-0.8,0.4-1.5,0.9-2.1,1.7c-0.6,0.7-1,1.7-1.3,2.8
				s-0.5,2.4-0.5,3.8c0,2.8,0.6,5,1.8,6.5c1.2,1.5,2.8,2.3,4.8,2.3s3.6-0.8,4.8-2.3C508.6,134,509.2,131.8,509.2,129z"/>
		</g>
	</g>
</g>
</svg>
